<svg preserveAspectRatio="none" viewBox="0 0 1000 100" xmlns="http://www.w3.org/2000/svg" xmlns:xlink="http://www.w3.org/1999/xlink">
  <defs>
    <linearGradient gradientUnits="userSpaceOnUse" x1="-819.2" x2="819.2" spreadMethod="pad" gradientTransform="matrix(0.0000457763671875 -0.0552978515625 0.0450897216796875 0.0000457763671875 499.05 48.55)" id="gradient0">
      <stop offset="0"/>
      <stop offset="0.5490196078431373" stop-color="#381C31"/>
      <stop offset="1"/>
    </linearGradient>
    <linearGradient gradientUnits="userSpaceOnUse" x1="-819.2" x2="819.2" spreadMethod="pad" gradientTransform="matrix(0.0000457763671875 -0.0552978515625 0.0450897216796875 0.0000457763671875 499.05 48.55)" id="gradient1">
      <stop offset="0" stop-color="#002766"/>
      <stop offset="0.5490196078431373" stop-color="#54D7CB"/>
      <stop offset="1" stop-color="#002766"/>
    </linearGradient>
  </defs>
  <g>
    <path stroke="none" fill="#380A31" d="M415.05 22.45 L415.45 22.5 421.25 21.55 415.05 22.45 M992.45 57 L974.95 89.5 895.95 95 759.45 95 609.45 97 421 95.5 235 96 63 92 17 78 11.5 51 18 29.5 34.5 5.5 68.5 5.5 169.5 7.5 269 5 436.95 3 719 4.5 797 4 944.45 5.5 990.95 13 992.45 57"/>
    <path stroke="none" fill="url(#gradient0)" d="M992.45 57 L962.6 76.75 584.95 75 195 75 24.4 80.35 11.5 51 54 16.5 274.7 6.35 722.95 16.5 879.95 10.5 987.45 37.75 992.45 57"/>
    <path stroke="none" fill="url(#gradient1)" d="M992.45 57 L962.6 76.75 625.75 75.2 195 75 24.4 80.35 11.5 51 54 16.5 274.7 6.35 722.95 16.5 879.95 10.5 987.45 37.75 992.45 57"/>
    <path stroke="none" fill="#160C36" d="M137.5 93.75 L63 92 135 85.5 137.5 93.75 M361 64 L379.1 93.95 337.25 92.4 361 64 M223 64.5 L273 90 235 96 223 64.5 M24.5 74.5 L69 57.5 63 92 24.5 74.5"/>
    <path stroke="none" fill="#1D113A" d="M855.95 69.5 L895.95 95 826.45 86.5 855.95 69.5 M302 71.5 L337.25 92.4 273 90 302 71.5 M190.25 91.3 L135 85.5 164.5 60 190.25 91.3 M107.5 51.5 L135 85.5 63 92 107.5 51.5"/>
    <path stroke="none" fill="#320D34" d="M107.5 51.5 L143.8 56.9 164.5 60 135 85.5 107.5 51.5 63 92 69 57.5 107.5 51.5 M361 64 L302 71.5 334 53.5 361 64"/>
    <path stroke="none" fill="#38143B" d="M759.45 95 L693 95.9 687.95 87.5 759.45 95 M279.45 59.8 L302 71.5 273 90 279.45 59.8 M190.25 91.3 L164.5 60 193.75 62.25 223 64.5 190.25 91.3"/>
    <path stroke="none" fill="#4B1034" d="M279.45 59.8 L273 90 223 64.5 279.45 59.8"/>
    <path stroke="none" fill="#5E0A2A" d="M879.95 4.85 L879.95 10.5 932.4 28.5 903.95 53 879.95 10.5 797 4 879.95 4.85 M982.45 18.5 L992.45 57 979.95 43.5 982.45 18.5 M828.45 36.5 L769.45 34.5 797 4 828.45 36.5 M738.5 22.5 L751 47.5 687.5 29 644.15 35.6 638.5 12 687.5 29 738.5 22.5 M528 19.5 L563.95 3.5 638.5 12 528 19.5 M436.5 52.5 L482.45 11.5 482 39.5 436.5 52.5 373.45 29 415.05 22.45 415.45 22.5 415.75 22.45 436.5 52.5 M354.5 10 L373.45 29 334 42.5 354.5 10 M122 14 L154.5 32 111.55 41.1 122 14 M68.5 5.5 L68.95 49 50.5 38 68.5 5.5 M32 19.5 L50.5 38 11.5 51 32 19.5"/>
    <path stroke="none" fill="#761B32" d="M944.45 5.5 L982.45 18.5 990.95 13 992.45 57 982.45 18.5 932.4 28.5 944.45 5.5 M879.95 10.5 L828.45 36.5 797 4 879.95 10.5 M738.5 22.5 L769.45 34.5 751 47.5 738.5 22.5 M638.5 12 L719 4.5 687.5 29 638.5 12 644.15 35.6 594 35 638.5 12 594 35 528 19.5 482 39.5 482.45 11.5 436.5 52.5 415.75 22.45 421.25 21.55 482.45 11.5 528 19.5 638.5 12 M354.5 10 L415.05 22.45 373.45 29 354.5 10 M318.5 16 L334 42.5 281.5 50 318.5 16 M154.5 32 L202 33 169.5 48 154.5 32 M122 14 L111.55 41.1 96.5 28.5 122 14 M68.5 5.5 L96.5 28.5 68.95 49 68.5 5.5"/>
    <path stroke="none" fill="#781431" d="M68.5 5.5 L50.5 38 32 19.5 68.5 5.5 32 19.5 34.5 5.5 68.5 5.5 M11.5 51 L18 29.5 32 19.5 11.5 51 M124 6.6 L169.5 7.5 202 33 227 15 217 43.5 202 33 154.5 32 169.5 7.5 122 14 124 6.6 M270.5 24 L318.5 16 281.5 50 270.5 24"/>
    <path stroke="none" fill="#932341" d="M18 29.5 L34.5 5.5 32 19.5 18 29.5 M68.5 5.5 L124 6.6 122 14 68.5 5.5 M563.95 3.5 L641.45 4 638.5 12 563.95 3.5 M436.95 3 L415.65 22.35 436.95 3 482.45 11.5 421.25 21.55 415.65 22.35 415.05 22.45 354.5 10 334 42.5 318.5 16 354.5 10 436.95 3"/>
    <path stroke="none" fill="#650831" d="M122 14 L96.5 28.5 68.5 5.5 122 14"/>
    <path stroke="none" fill="#7F1435" d="M122 14 L169.5 7.5 226 6.1 227 15 169.5 7.5 154.5 32 122 14 M318.5 16 L269 5 354.5 10 318.5 16 M227 15 L269 5 270.5 24 227 15 270.5 24 281.5 50 227 15"/>
    <path stroke="none" fill="#912334" d="M227 15 L202 33 169.5 7.5 227 15 226 6.1 269 5 352.95 4 354.5 10 269 5 318.5 16 270.5 24 269 5 227 15 M990.95 13 L982.45 18.5 944.45 5.5 990.95 13 M879.95 10.5 L944.45 5.5 932.4 28.5 982.45 18.5 979.95 43.5 932.4 28.5 879.95 10.5 M436.95 3 L485 3.2 482.45 11.5 436.95 3 M641.45 4 L719 4.5 738.5 22.5 797 4 769.45 34.5 738.5 22.5 687.5 29 719 4.5 638.5 12 641.45 4 M563.95 3.5 L528 19.5 482.45 11.5 563.95 3.5"/>
    <path stroke="none" fill="#891E39" d="M563.95 3.5 L482.45 11.5 485 3.2 563.95 3.5 M352.95 4 L436.95 3 354.5 10 352.95 4"/>
    <path stroke="none" fill="#160C33" d="M821.95 95 L759.45 95 826.45 86.5 821.95 95 M693 95.9 L609.45 97 687.95 87.5 693 95.9 M421 95.5 L277.5 95.9 273 90 337.25 92.4 337.95 92.8 337.25 92.4 379.1 93.95 421 95.5 M235 96 L137.5 93.75 135 85.5 190.25 91.3 235 96 M63 92 L17 78 11.5 51 24.5 74.5 63 92 M946.4 60 L968.05 82.35 895.95 95 946.4 60 M710 61 L687.95 87.5 630.5 82 609.45 97 518 88 630.5 82 710 61 M17 78 L24.5 74.5 17 78"/>
    <path stroke="none" fill="#201736" d="M515.2 96.25 L421 95.5 379.1 93.95 407.5 72 421 95.5 518 88 515.2 96.25 M277.5 95.9 L235 96 273 90 277.5 95.9"/>
    <path stroke="none" fill="#2F183D" d="M687.95 87.5 L710 61 776.95 66.5 759.45 95 710 61 759.45 95 687.95 87.5 M609.45 97 L515.2 96.25 518 88 609.45 97 M855.95 69.5 L899.95 71.5 895.95 95 855.95 69.5 826.45 86.5 835.9 58 826.45 86.5 776.95 66.5 835.9 58 855.95 69.5 M473.45 65 L518 88 538 58.5 591.5 57 518 88 421 95.5 473.45 65 407.5 72 437.45 59 473.45 65 M361 64 L407.5 72 379.1 93.95 361 64 337.25 92.4 302 71.5 361 64 M235 96 L190.25 91.3 223 64.5 235 96"/>
    <path stroke="none" fill="#410D33" d="M895.95 95 L899.95 71.5 946.4 60 895.95 95 M776.95 66.5 L826.45 86.5 759.45 95 776.95 66.5 M591.5 57 L646.5 45.5 630.5 82 591.5 57 M538 58.5 L518 88 473.45 65 538 58.5 M407.5 72 L473.45 65 421 95.5 407.5 72 361 64 376.5 45.5 407.5 72"/>
    <path stroke="none" fill="#2B183D" d="M992.45 57 L974.95 89.5 968.05 82.35 992.45 57 M899.95 71.5 L855.95 69.5 867.9 30.5 899.95 71.5 M821.45 48.5 L835.9 58 776.95 66.5 710 61 751.45 55 776.95 66.5 821.45 48.5 M646.5 45.5 L710 61 630.5 82 646.5 45.5 M591.5 57 L630.5 82 518 88 591.5 57 M503 49.5 L538 58.5 473.45 65 503 49.5"/>
    <path stroke="none" fill="#110C36" d="M968.05 82.35 L974.95 89.5 895.95 95 968.05 82.35"/>
    <path stroke="none" fill="#3A0B2F" d="M968.05 82.35 L946.4 60 992.45 57 968.05 82.35 M867.9 30.5 L855.95 69.5 835.9 58 866.25 30.75 867.9 30.5"/>
    <path stroke="none" fill="#800D2D" d="M879.95 4.85 L944.45 5.5 879.95 10.5 879.95 4.85 M719 4.5 L797 4 738.5 22.5 719 4.5"/>
    <path stroke="none" fill="#23111E" d="M895.95 95 L821.95 95 826.45 86.5 895.95 95 M687.95 87.5 L609.45 97 630.5 82 687.95 87.5"/>
    <path fill="none" stroke="#6699FF" stroke-width="1" stroke-linecap="round" stroke-linejoin="round" d="M992.45 57 L962.6 76.75 625.75 75.2 195 75 24.4 80.35 11.5 51 54 16.5 274.7 6.35 722.95 16.5 879.95 10.5 987.45 37.75 992.45 57"/>
    <path fill="none" stroke="#00FF00" stroke-width="1" stroke-opacity="0" stroke-linecap="round" stroke-linejoin="round" d="M992.45 57 L990.95 13 944.45 5.5 879.95 4.85 879.95 10.5 944.45 5.5 932.4 28.5 982.45 18.5 992.45 57 968.05 82.35 974.95 89.5 895.95 95 821.95 95 759.45 95 693 95.9 609.45 97 515.2 96.25 421 95.5 277.5 95.9 235 96 137.5 93.75 63 92 17 78 11.5 51 18 29.5 34.5 5.5 68.5 5.5 124 6.6 169.5 7.5 226 6.1 269 5 352.95 4 436.95 3 485 3.2 563.95 3.5 641.45 4 719 4.5 797 4 879.95 4.85 M944.45 5.5 L982.45 18.5 990.95 13 M979.95 43.5 L982.45 18.5 M974.95 89.5 L992.45 57 932.4 28.5 946.4 60 992.45 57 M979.95 43.5 L992.45 57 M903.95 53 L899.95 71.5 932.4 28.5 903.95 53 879.95 10.5 899.95 71.5 855.95 69.5 895.95 95 899.95 71.5 867.9 30.5 855.95 69.5 835.9 58 826.45 86.5 855.95 69.5 M946.4 60 L968.05 82.35 895.95 95 826.45 86.5 821.95 95 M899.95 71.5 L946.4 60 895.95 95 M828.45 36.5 L866.25 30.75 869.5 27.85 879.95 10.5 828.45 36.5 769.45 34.5 776.95 66.5 828.45 36.5 797 4 769.45 34.5 738.5 22.5 751 47.5 769.45 34.5 M866.25 30.75 L867.9 30.5 869.5 27.85 M821.45 48.5 L828.45 36.5 835.9 58 866.25 30.75 M821.45 48.5 L835.9 58 776.95 66.5 826.45 86.5 759.45 95 687.95 87.5 693 95.9 M879.95 10.5 L932.4 28.5 979.95 43.5 M719 4.5 L738.5 22.5 797 4 879.95 10.5 M751.45 55 L776.95 66.5 751 47.5 751.45 55 710 61 776.95 66.5 821.45 48.5 M759.45 95 L776.95 66.5 M710 61 L687.95 87.5 630.5 82 609.45 97 687.95 87.5 M687.5 29 L719 4.5 638.5 12 687.5 29 738.5 22.5 M710 61 L687.5 29 646.5 45.5 710 61 751 47.5 687.5 29 644.15 35.6 646.5 45.5 594 35 591.5 57 646.5 45.5 630.5 82 710 61 759.45 95 M644.15 35.6 L638.5 12 594 35 644.15 35.6 M638.5 12 L641.45 4 M591.5 57 L630.5 82 518 88 609.45 97 M528 19.5 L563.95 3.5 482.45 11.5 528 19.5 638.5 12 563.95 3.5 M518 88 L515.2 96.25 M503 49.5 L538 58.5 528 19.5 503 49.5 482 39.5 473.45 65 503 49.5 M473.45 65 L518 88 538 58.5 473.45 65 437.45 59 407.5 72 473.45 65 436.5 52.5 437.45 59 M518 88 L591.5 57 538 58.5 594 35 528 19.5 482 39.5 482.45 11.5 436.5 52.5 482 39.5 M482.45 11.5 L485 3.2 M415.65 22.35 L436.95 3 354.5 10 415.05 22.45 415.65 22.35 421.25 21.55 482.45 11.5 436.95 3 M421.25 21.55 L415.75 22.45 436.5 52.5 373.45 29 407.5 72 436.5 52.5 M415.45 22.5 L415.65 22.35 M415.75 22.45 L415.45 22.5 415.05 22.45 373.45 29 354.5 10 334 42.5 373.45 29 376.5 45.5 407.5 72 361 64 379.1 93.95 407.5 72 421 95.5 473.45 65 M352.95 4 L354.5 10 269 5 318.5 16 354.5 10 M337.25 92.4 L361 64 302 71.5 337.25 92.4 273 90 277.5 95.9 M337.25 92.4 L337.95 92.8 M334 53.5 L361 64 334 42.5 334 53.5 302 71.5 279.45 59.8 273 90 302 71.5 281.5 50 279.45 59.8 223 64.5 273 90 235 96 190.25 91.3 135 85.5 137.5 93.75 M337.25 92.4 L379.1 93.95 421 95.5 518 88 M361 64 L373.45 29 M361 64 L376.5 45.5 M270.5 24 L269 5 227 15 270.5 24 318.5 16 334 42.5 302 71.5 M270.5 24 L281.5 50 318.5 16 M202 33 L217 43.5 227 15 202 33 154.5 32 169.5 48 202 33 169.5 7.5 154.5 32 122 14 111.55 41.1 154.5 32 164.5 60 169.5 48 M169.5 7.5 L227 15 226 6.1 M198 54.5 L202 33 164.5 60 198 54.5 223 64.5 202 33 M164.5 60 L190.25 91.3 223 64.5 235 96 M164.5 60 L193.75 62.25 198 54.5 M193.75 62.25 L223 64.5 217 43.5 M227 15 L223 64.5 281.5 50 227 15 M122 14 L124 6.6 M96.5 28.5 L111.55 41.1 107.5 51.5 154.5 32 150.5 51.5 164.5 60 143.8 56.9 107.5 51.5 135 85.5 164.5 60 M150.5 51.5 L143.8 56.9 M96.5 28.5 L107.5 51.5 150.5 51.5 M68.5 5.5 L96.5 28.5 122 14 68.5 5.5 68.95 49 96.5 28.5 69 57.5 107.5 51.5 63 92 135 85.5 M32 19.5 L50.5 38 68.5 5.5 32 19.5 34.5 5.5 M50.5 38 L68.95 49 69 57.5 50.5 38 24.5 74.5 69 57.5 63 92 24.5 74.5 17 78 M32 19.5 L18 29.5 M11.5 51 L24.5 74.5 M11.5 51 L32 19.5 M11.5 51 L50.5 38 M122 14 L169.5 7.5 M281.5 50 L334 42.5"/>
  </g>
</svg>