<svg preserveAspectRatio="none" viewBox="0 0 540 960" xmlns="http://www.w3.org/2000/svg" xmlns:xlink="http://www.w3.org/1999/xlink">
  <defs>
    <linearGradient gradientUnits="userSpaceOnUse" x1="-819.2" x2="819.2" spreadMethod="pad" gradientTransform="matrix(0 0.5859375 -0.5859375 0 270 480)" id="gradient0">
      <stop offset="0" stop-color="#8F2332"/>
      <stop offset="1" stop-color="#080E2E" stop-opacity="0.9882352941176471"/>
    </linearGradient>
    <linearGradient gradientUnits="userSpaceOnUse" x1="-819.2" x2="819.2" spreadMethod="pad" gradientTransform="matrix(0 0.5859375 -0.5859375 0 270 480)" id="gradient1">
      <stop offset="0" stop-color="#8F2332" stop-opacity="0.14901960784313725"/>
      <stop offset="1" stop-color="#080E2E" stop-opacity="0.1607843137254902"/>
    </linearGradient>
  </defs>
  <g>
    <path stroke="none" fill="url(#gradient0)" d="M540 0 L540 960 0 960 0 0 540 0"/>
    <path stroke="none" fill="#902334" d="M0 25.05 L0 0 123 0 126.5 25.55 41 78.55 0 25.05"/>
    <path stroke="none" fill="#861E31" d="M0 25.05 L41 78.55 15 203.55 0 210.55 0 25.05"/>
    <path stroke="none" fill="#81142E" d="M101 158.05 L15 203.55 41 78.55 101 158.05"/>
    <path stroke="none" fill="#85152E" d="M101 158.05 L41 78.55 126.5 25.55 101 158.05"/>
    <path stroke="none" fill="#801730" d="M101 158.05 L126.5 25.55 179.95 121.05 101 158.05"/>
    <path stroke="none" fill="#8C1937" d="M164.45 0 L216.95 0 254.95 66.05 126.5 25.55 164.45 0"/>
    <path stroke="none" fill="#8F1A34" d="M164.45 0 L126.5 25.55 123 0 164.45 0"/>
    <path stroke="none" fill="#891F3A" d="M179.95 121.05 L126.5 25.55 254.95 66.05 179.95 121.05"/>
    <path stroke="none" fill="#870D32" d="M216.95 0 L361.95 0 325.45 26.05 254.95 66.05 216.95 0"/>
    <path stroke="none" fill="#6D0729" d="M385.95 42.55 L381.95 97.05 254.95 66.05 325.45 26.05 385.95 42.55"/>
    <path stroke="none" fill="#630931" d="M385.95 42.55 L325.45 26.05 361.95 0 456.95 0 512.95 18.55 446.45 59.05 385.95 42.55"/>
    <path stroke="none" fill="#5E062A" d="M385.95 42.55 L446.45 59.05 381.95 97.05 385.95 42.55"/>
    <path stroke="none" fill="#670932" d="M512.95 18.55 L540 30.05 540 97.05 446.45 59.05 512.95 18.55"/>
    <path stroke="none" fill="#680D35" d="M512.95 18.55 L525.45 0 540 0 540 30.05 512.95 18.55"/>
    <path stroke="none" fill="#6D0C33" d="M512.95 18.55 L456.95 0 525.45 0 512.95 18.55"/>
    <path stroke="none" fill="#640831" d="M540 97.05 L540 106.55 478.45 149.05 446.45 59.05 540 97.05"/>
    <path stroke="none" fill="#5F0730" d="M381.95 97.05 L446.45 59.05 478.45 149.05 411.95 190.55 381.95 97.05"/>
    <path stroke="none" fill="#51052D" d="M411.95 190.55 L478.45 149.05 462.95 262.5 411.95 190.55"/>
    <path stroke="none" fill="#49052D" d="M462.95 262.5 L478.45 149.05 520.95 222 462.95 262.5"/>
    <path stroke="none" fill="#5D0934" d="M540 106.55 L540 211.05 Q530.5 216.55 520.95 222 L478.45 149.05 540 106.55"/>
    <path stroke="none" fill="#6D0A34" d="M381.95 97.05 L411.95 190.55 303.95 151.55 381.95 97.05"/>
    <path stroke="none" fill="#680A35" d="M303.95 151.55 L411.95 190.55 341.95 237.55 303.95 151.55"/>
    <path stroke="none" fill="#7A1331" d="M303.95 151.55 L179.95 121.05 254.95 66.05 381.95 97.05 303.95 151.55"/>
    <path stroke="none" fill="#751431" d="M303.95 151.55 L229 204.05 179.95 121.05 303.95 151.55"/>
    <path stroke="none" fill="#510629" d="M229 204.05 L341.95 237.55 285.95 269.05 229 204.05"/>
    <path stroke="none" fill="#6C0D2F" d="M229 204.05 L303.95 151.55 341.95 237.55 229 204.05"/>
    <path stroke="none" fill="#76122F" d="M157 241.55 L101 158.05 179.95 121.05 157 241.55"/>
    <path stroke="none" fill="#6E0C2B" d="M157 241.55 L179.95 121.05 229 204.05 157 241.55"/>
    <path stroke="none" fill="#6F172F" d="M157 241.55 L74.5 288.5 15 203.55 101 158.05 157 241.55"/>
    <path stroke="none" fill="#6B132A" d="M0 340.5 L0 278.05 15 203.55 74.5 288.5 0 340.5"/>
    <path stroke="none" fill="#76162C" d="M0 278.05 L0 210.55 15 203.55 0 278.05"/>
    <path stroke="none" fill="#5C0926" d="M0 454.5 L0 340.5 74.5 288.5 138.45 362.5 50.5 420 0 454.5"/>
    <path stroke="none" fill="#5F0825" d="M157 241.55 L138.45 362.5 74.5 288.5 157 241.55"/>
    <path stroke="none" fill="#600A29" d="M157 241.55 L212.5 316.55 138.45 362.5 157 241.55"/>
    <path stroke="none" fill="#630929" d="M157 241.55 L229 204.05 212.5 316.55 157 241.55"/>
    <path stroke="none" fill="#5E082F" d="M285.95 269.05 L212.5 316.55 229 204.05 285.95 269.05"/>
    <path stroke="none" fill="#631432" d="M285.95 269.05 L332.45 345.55 212.5 316.55 285.95 269.05"/>
    <path stroke="none" fill="#4E072A" d="M285.95 269.05 L341.95 237.55 332.45 345.55 285.95 269.05"/>
    <path stroke="none" fill="#41052A" d="M386.95 309 L332.45 345.55 341.95 237.55 386.95 309"/>
    <path stroke="none" fill="#3A062A" d="M386.95 309 L370.45 428.5 332.45 345.55 386.95 309"/>
    <path stroke="none" fill="#590C31" d="M386.95 309 L341.95 237.55 411.95 190.55 386.95 309"/>
    <path stroke="none" fill="#5C1133" d="M386.95 309 L411.95 190.55 462.95 262.5 386.95 309"/>
    <path stroke="none" fill="#4C0D32" d="M386.95 309 L462.95 262.5 448.95 380 370.45 428.5 386.95 309"/>
    <path stroke="none" fill="#420B33" d="M448.95 380 L462.95 262.5 515.95 336 502.95 458.5 448.95 380"/>
    <path stroke="none" fill="#480830" d="M462.95 262.5 L520.95 222 515.95 336 462.95 262.5"/>
    <path stroke="none" fill="#490633" d="M540 211.05 L540 326 515.95 336 520.95 222 Q530.5 216.55 540 211.05"/>
    <path stroke="none" fill="#3F0630" d="M540 326 L540 379.5 515.95 336 540 326"/>
    <path stroke="none" fill="#320836" d="M540 379.5 L540 534 533.95 537.5 502.95 458.5 515.95 336 540 379.5"/>
    <path stroke="none" fill="#250934" d="M502.95 458.5 L533.95 537.5 462.95 582 502.95 458.5"/>
    <path stroke="none" fill="#550F30" d="M212.5 316.55 L332.45 345.55 256.5 399.05 212.5 316.55"/>
    <path stroke="none" fill="#550A2D" d="M212.5 316.55 L256.5 399.05 138.45 362.5 212.5 316.55"/>
    <path stroke="none" fill="#460B31" d="M332.45 345.55 L370.45 428.5 256.5 399.05 332.45 345.55"/>
    <path stroke="none" fill="#3B0A2F" d="M312.45 477 L256.5 399.05 370.45 428.5 416.45 503.5 312.45 477"/>
    <path stroke="none" fill="#4B0F30" d="M312.45 477 L178.5 452.5 256.5 399.05 312.45 477"/>
    <path stroke="none" fill="#3F0526" d="M138.45 362.5 L256.5 399.05 178.5 452.5 50.5 420 138.45 362.5"/>
    <path stroke="none" fill="#4D0A2F" d="M50.5 420 L178.5 452.5 102 504 50.5 420"/>
    <path stroke="none" fill="#460C32" d="M178.5 452.5 L226 532.5 102 504 178.5 452.5"/>
    <path stroke="none" fill="#50112D" d="M0 548 L0 454.5 50.5 420 102 504 14 567.5 0 548"/>
    <path stroke="none" fill="#390B2F" d="M102 504 L226 532.5 155.95 594.1 102 504"/>
    <path stroke="none" fill="#3F0F2F" d="M102 504 L155.95 594.1 14 567.5 102 504"/>
    <path stroke="none" fill="#420D32" d="M312.45 477 L226 532.5 178.5 452.5 312.45 477"/>
    <path stroke="none" fill="#2F062A" d="M312.45 477 L350.45 557 226 532.5 312.45 477"/>
    <path stroke="none" fill="#330932" d="M312.45 477 L416.45 503.5 350.45 557 312.45 477"/>
    <path stroke="none" fill="#4B133A" d="M416.45 503.5 L370.45 428.5 448.95 380 416.45 503.5"/>
    <path stroke="none" fill="#431338" d="M416.45 503.5 L448.95 380 502.95 458.5 416.45 503.5"/>
    <path stroke="none" fill="#361236" d="M416.45 503.5 L502.95 458.5 462.95 582 416.45 503.5"/>
    <path stroke="none" fill="#34133A" d="M416.45 503.5 L462.95 582 397.95 638 350.45 557 416.45 503.5"/>
    <path stroke="none" fill="#300A30" d="M286 618.5 L350.45 557 397.95 638 286 618.5"/>
    <path stroke="none" fill="#300A2F" d="M286 618.5 L226 532.5 350.45 557 286 618.5"/>
    <path stroke="none" fill="#320B31" d="M286 618.5 L155.95 594.1 226 532.5 286 618.5"/>
    <path stroke="none" fill="#340F38" d="M286 618.5 L206 681 155.95 594.1 286 618.5"/>
    <path stroke="none" fill="#27062C" d="M63.5 655 L155.95 594.1 206 681 63.5 655"/>
    <path stroke="none" fill="#30082B" d="M63.5 655 L14 567.5 155.95 594.1 63.5 655"/>
    <path stroke="none" fill="#3A0F2E" d="M63.5 655 L0 647 0 567 14 567.5 63.5 655"/>
    <path stroke="none" fill="#480F30" d="M0 567 L0 548 14 567.5 0 567"/>
    <path stroke="none" fill="#200731" d="M206 681 L286 618.5 397.95 638 328.45 698.5 206 681"/>
    <path stroke="none" fill="#230A31" d="M206 681 L328.45 698.5 253.5 766 121 751 206 681"/>
    <path stroke="none" fill="#2B1A40" d="M253.5 766 L328.45 698.5 451.95 722 385.45 788.5 253.5 766"/>
    <path stroke="none" fill="#2A183D" d="M451.95 722 L328.45 698.5 397.95 638 518.45 660 451.95 722"/>
    <path stroke="none" fill="#2F193E" d="M397.95 638 L462.95 582 518.45 660 397.95 638"/>
    <path stroke="none" fill="#241038" d="M462.95 582 L533.95 537.5 518.45 660 462.95 582"/>
    <path stroke="none" fill="#321F45" d="M540 534 L540 649.5 518.45 660 533.95 537.5 540 534"/>
    <path stroke="none" fill="#181237" d="M540 698 L540 737 451.95 722 518.45 660 540 698"/>
    <path stroke="none" fill="#1C133A" d="M540 698 L518.45 660 540 649.5 540 698"/>
    <path stroke="none" fill="#2A072B" d="M0 702.5 L0 647 63.5 655 0 702.5"/>
    <path stroke="none" fill="#311335" d="M0 702.5 L63.5 655 121 751 0 728 0 702.5"/>
    <path stroke="none" fill="#37173B" d="M121 751 L63.5 655 206 681 121 751"/>
    <path stroke="none" fill="#200D34" d="M121 751 L253.5 766 173 841 121 751"/>
    <path stroke="none" fill="#250D31" d="M121 751 L28.5 819.5 0 768 0 728 121 751"/>
    <path stroke="none" fill="#251035" d="M0 815.5 L0 768 28.5 819.5 0 815.5"/>
    <path stroke="none" fill="#1B1030" d="M0 908 L0 840 28.5 819.5 83.5 924.5 0 908"/>
    <path stroke="none" fill="#1E0C2E" d="M0 840 L0 815.5 28.5 819.5 0 840"/>
    <path stroke="none" fill="#211736" d="M83.5 924.5 L28.5 819.5 173 841 83.5 924.5"/>
    <path stroke="none" fill="#1E0B32" d="M121 751 L173 841 28.5 819.5 121 751"/>
    <path stroke="none" fill="#150C33" d="M173 841 L224.5 927.5 83.5 924.5 173 841"/>
    <path stroke="none" fill="#150831" d="M41 960 L0 960 0 908 83.5 924.5 41 960"/>
    <path stroke="none" fill="#0E062D" d="M41 960 L83.5 924.5 104 960 41 960"/>
    <path stroke="none" fill="#100830" d="M190 960 L104 960 83.5 924.5 224.5 927.5 190 960"/>
    <path stroke="none" fill="#19193F" d="M190 960 L224.5 927.5 362.45 948.5 352.45 960 190 960"/>
    <path stroke="none" fill="#16163E" d="M432.95 871 L362.45 948.5 224.5 927.5 305.45 855.5 432.95 871"/>
    <path stroke="none" fill="#160C36" d="M173 841 L305.45 855.5 224.5 927.5 173 841"/>
    <path stroke="none" fill="#1F1338" d="M173 841 L253.5 766 305.45 855.5 173 841"/>
    <path stroke="none" fill="#1D113A" d="M253.5 766 L385.45 788.5 305.45 855.5 253.5 766"/>
    <path stroke="none" fill="#12103C" d="M492.45 798.5 L432.95 871 305.45 855.5 385.45 788.5 492.45 798.5"/>
    <path stroke="none" fill="#130C3A" d="M492.45 798.5 L385.45 788.5 451.95 722 492.45 798.5"/>
    <path stroke="none" fill="#0F0B34" d="M492.45 798.5 L451.95 722 540 737 540 752.5 492.45 798.5"/>
    <path stroke="none" fill="#121335" d="M492.45 798.5 L540 752.5 540 881 492.45 798.5"/>
    <path stroke="none" fill="#0E1135" d="M492.45 798.5 L540 881 432.95 871 492.45 798.5"/>
    <path stroke="none" fill="#0E1337" d="M432.95 871 L540 881 483.45 955 362.45 948.5 432.95 871"/>
    <path stroke="none" fill="#0A0D36" d="M479.95 960 L352.45 960 362.45 948.5 483.45 955 479.95 960"/>
    <path stroke="none" fill="#080D2E" d="M479.95 960 L483.45 955 540 881 540 960 479.95 960"/>
    <path stroke="none" fill="url(#gradient1)" d="M540 0 L540 960 0 960 0 0 540 0"/>
  </g>
</svg>