<svg viewBox="0 0 540 960" xmlns="http://www.w3.org/2000/svg" xmlns:xlink="http://www.w3.org/1999/xlink">
  <defs>
    <linearGradient gradientUnits="userSpaceOnUse" x1="-819.2" x2="819.2" spreadMethod="pad" gradientTransform="matrix(0 0.5859375 -0.5859375 0 270 480)" id="gradient0">
      <stop offset="0" stop-color="#8F2332"/>
      <stop offset="1" stop-color="#080E2E" stop-opacity="0.9882352941176471"/>
    </linearGradient>
    <linearGradient gradientUnits="userSpaceOnUse" x1="-819.2" x2="819.2" spreadMethod="pad" gradientTransform="matrix(0 0.5859375 -0.5859375 0 270 480)" id="gradient1">
      <stop offset="0" stop-color="#8F2332" stop-opacity="0.1450980392156863"/>
      <stop offset="1" stop-color="#080E2E" stop-opacity="0.1568627450980392"/>
    </linearGradient>
  </defs>
  <g>
    <path stroke="none" fill="url(#gradient0)" d="M540 0 L540 960 0 960 0 0 540 0"/>
    <path stroke="none" fill="#870D32" d="M540 0 L540 25.55 525.45 0 540 0 M361.95 0 L325.45 26.05 254.95 66.05 216.95 0 361.95 0 M0 25.05 L0 0 73.95 0 0 25.05"/>
    <path stroke="none" fill="#630931" d="M456.95 0 L512.95 18.55 446.45 59.05 434.95 0 456.95 0"/>
    <path stroke="none" fill="#6D0729" d="M254.95 66.05 L325.45 26.05 385.95 42.55 381.95 97.05 254.95 66.05"/>
    <path stroke="none" fill="#5E062A" d="M381.95 97.05 L385.95 42.55 446.45 59.05 381.95 97.05"/>
    <path stroke="none" fill="#51052D" d="M411.95 190.55 L478.45 149.05 462.95 262.5 411.95 190.55"/>
    <path stroke="none" fill="#6D0A34" d="M411.95 190.55 L303.95 151.55 381.95 97.05 411.95 190.55 M525.45 0 L540 25.55 512.95 18.55 525.45 0 M434.95 0 L446.45 59.05 385.95 42.55 434.95 0"/>
    <path stroke="none" fill="#3A062A" d="M332.45 345.55 L386.95 309 370.45 428.5 332.45 345.55"/>
    <path stroke="none" fill="#41052A" d="M332.45 345.55 L341.95 237.55 386.95 309 332.45 345.55"/>
    <path stroke="none" fill="#590C31" d="M341.95 237.55 L411.95 190.55 386.95 309 341.95 237.55"/>
    <path stroke="none" fill="#420B33" d="M448.95 380 L462.95 262.5 506.2 356 502.95 458.5 448.95 380"/>
    <path stroke="none" fill="#4C0D32" d="M448.95 380 L370.45 428.5 386.95 309 462.95 262.5 448.95 380"/>
    <path stroke="none" fill="#5C1133" d="M411.95 190.55 L462.95 262.5 386.95 309 411.95 190.55"/>
    <path stroke="none" fill="#4E072A" d="M462.95 262.5 L520.95 222 506.2 356 462.95 262.5 M341.95 237.55 L332.45 345.55 285.95 269.05 341.95 237.55"/>
    <path stroke="none" fill="#490633" d="M540 255.5 L540 352 506.2 356 520.95 222 540 255.5 M0 351.5 L0 255 48 344.5 0 351.5"/>
    <path stroke="none" fill="#49052D" d="M462.95 262.5 L478.45 149.05 520.95 222 462.95 262.5"/>
    <path stroke="none" fill="#680A35" d="M303.95 151.55 L411.95 190.55 341.95 237.55 303.95 151.55"/>
    <path stroke="none" fill="#8C1937" d="M216.95 0 L254.95 66.05 126.5 25.55 164.45 0 216.95 0"/>
    <path stroke="none" fill="#751431" d="M179.95 121.05 L303.95 151.55 229 204.05 179.95 121.05"/>
    <path stroke="none" fill="#7A1331" d="M179.95 121.05 L254.95 66.05 381.95 97.05 303.95 151.55 179.95 121.05 M512.95 18.55 L540 25.55 540 97.05 512.95 18.55 456.95 0 525.45 0 512.95 18.55 M446.45 59.05 L540 97.05 478.45 149.05 446.45 59.05"/>
    <path stroke="none" fill="#891F3A" d="M325.45 26.05 L361.95 0 434.95 0 385.95 42.55 325.45 26.05 M0 97 L0 25.05 41 78.55 0 97 M254.95 66.05 L179.95 121.05 126.5 25.55 254.95 66.05"/>
    <path stroke="none" fill="#902334" d="M73.95 0 L123 0 126.5 25.55 41 78.55 0 25.05 73.95 0"/>
    <path stroke="none" fill="#8F1A34" d="M123 0 L164.45 0 126.5 25.55 123 0"/>
    <path stroke="none" fill="#861E31" d="M41 78.55 L15 203.55 0 97 41 78.55"/>
    <path stroke="none" fill="#801730" d="M540 97.05 L540 211.05 Q530.5 216.55 520.95 222 L540 97.05 M0 210.55 L0 97 15 203.55 0 210.55 M179.95 121.05 L101 158.05 126.5 25.55 179.95 121.05"/>
    <path stroke="none" fill="#85152E" d="M101 158.05 L41 78.55 126.5 25.55 101 158.05"/>
    <path stroke="none" fill="#81142E" d="M101 158.05 L15 203.55 41 78.55 101 158.05"/>
    <path stroke="none" fill="#6B132A" d="M540 238.5 L540 255.5 520.95 222 540 238.5 M0 255 L0 238 74.5 288.5 48 344.5 0 255"/>
    <path stroke="none" fill="#6F172F" d="M101 158.05 L157 241.55 74.5 288.5 15 203.55 101 158.05"/>
    <path stroke="none" fill="#600A29" d="M157 241.55 L212.5 316.55 138.45 362.5 157 241.55"/>
    <path stroke="none" fill="#5F0825" d="M157 241.55 L138.45 362.5 74.5 288.5 157 241.55"/>
    <path stroke="none" fill="#5C0926" d="M540 211.05 L540 238.5 520.95 222 Q530.5 216.55 540 211.05 M0 238 L0 210.55 15 203.55 74.5 288.5 0 238 M48 344.5 L74.5 288.5 138.45 362.5 48 344.5"/>
    <path stroke="none" fill="#5E082F" d="M285.95 269.05 L212.5 316.55 229 204.05 285.95 269.05"/>
    <path stroke="none" fill="#631432" d="M285.95 269.05 L332.45 345.55 212.5 316.55 285.95 269.05"/>
    <path stroke="none" fill="#630929" d="M212.5 316.55 L157 241.55 229 204.05 212.5 316.55"/>
    <path stroke="none" fill="#510629" d="M285.95 269.05 L229 204.05 341.95 237.55 285.95 269.05"/>
    <path stroke="none" fill="#76122F" d="M157 241.55 L101 158.05 179.95 121.05 157 241.55"/>
    <path stroke="none" fill="#6E0C2B" d="M157 241.55 L179.95 121.05 229 204.05 157 241.55 M512.95 18.55 L540 97.05 446.45 59.05 512.95 18.55 M478.45 149.05 L411.95 190.55 381.95 97.05 446.45 59.05 478.45 149.05 540 97.05 520.95 222 478.45 149.05"/>
    <path stroke="none" fill="#550A2D" d="M212.5 316.55 L256.5 399.05 138.45 362.5 212.5 316.55 M48 344.5 L138.45 362.5 50.5 420 48 344.5"/>
    <path stroke="none" fill="#6C0D2F" d="M303.95 151.55 L341.95 237.55 229 204.05 303.95 151.55"/>
    <path stroke="none" fill="#3B0A2F" d="M256.5 399.05 L370.45 428.5 416.45 503.5 312.45 477 256.5 399.05"/>
    <path stroke="none" fill="#4B0F30" d="M256.5 399.05 L312.45 477 178.5 452.5 256.5 399.05"/>
    <path stroke="none" fill="#420D32" d="M312.45 477 L226 532.5 178.5 452.5 312.45 477"/>
    <path stroke="none" fill="#2F062A" d="M312.45 477 L350.45 557 226 532.5 312.45 477 M462.95 582 L533.95 537.5 518.45 660 462.95 582"/>
    <path stroke="none" fill="#460C32" d="M540 382.5 L540 443 502.95 458.5 506.2 356 540 382.5 M0 443 L0 382 50.5 420 0 443 M178.5 452.5 L226 532.5 102 504 178.5 452.5 M502.95 458.5 L540 469.7 533.95 537.5 502.95 458.5"/>
    <path stroke="none" fill="#3F0526" d="M138.45 362.5 L256.5 399.05 178.5 452.5 50.5 420 138.45 362.5"/>
    <path stroke="none" fill="#4D0A2F" d="M540 443 L540 469.7 502.95 458.5 540 443 M0 469.5 L0 443 50.5 420 0 469.5 M102 504 L50.5 420 178.5 452.5 102 504"/>
    <path stroke="none" fill="#3F0F2F" d="M102 504 L155.95 594.1 32.65 572.75 102 504 0 534.95 0 469.5 102 504 M540 469.7 L540 535.25 533.95 537.5 540 469.7"/>
    <path stroke="none" fill="#27062C" d="M63.5 655 L155.95 594.1 206 681 63.5 655"/>
    <path stroke="none" fill="#30082B" d="M63.5 655 L32.65 572.75 155.95 594.1 63.5 655"/>
    <path stroke="none" fill="#340F38" d="M206 681 L155.95 594.1 286 618.5 206 681"/>
    <path stroke="none" fill="#200731" d="M206 681 L286 618.5 397.95 638 328.45 698.5 206 681"/>
    <path stroke="none" fill="#390B2F" d="M540 535.25 L540 544.2 533.95 537.5 540 535.25 M0 544.25 L0 534.95 102 504 32.65 572.75 0 544.25 M102 504 L226 532.5 155.95 594.1 102 504 M502.95 458.5 L533.95 537.5 462.95 582 502.95 458.5"/>
    <path stroke="none" fill="#320B31" d="M155.95 594.1 L226 532.5 286 618.5 155.95 594.1"/>
    <path stroke="none" fill="#300A2F" d="M226 532.5 L350.45 557 286 618.5 226 532.5"/>
    <path stroke="none" fill="#200D34" d="M121 751 L253.5 766 173 841 121 751"/>
    <path stroke="none" fill="#34133A" d="M540 544.2 L540 624 518.45 660 533.95 537.5 540 544.2 M0 623.95 L0 544.25 32.65 572.75 0 623.95 M416.45 503.5 L462.95 582 397.95 638 350.45 557 416.45 503.5"/>
    <path stroke="none" fill="#361236" d="M416.45 503.5 L502.95 458.5 462.95 582 416.45 503.5"/>
    <path stroke="none" fill="#330932" d="M416.45 503.5 L350.45 557 312.45 477 416.45 503.5"/>
    <path stroke="none" fill="#4B133A" d="M416.45 503.5 L370.45 428.5 448.95 380 416.45 503.5 M0 469.5 L50.5 420 102 504 0 469.5"/>
    <path stroke="none" fill="#130C3A" d="M0 728 L121 751 28.5 819.5 0 728 M385.45 788.5 L451.95 722 492.45 798.5 385.45 788.5"/>
    <path stroke="none" fill="#2B1A40" d="M385.45 788.5 L253.5 766 328.45 698.5 451.95 722 385.45 788.5 M0 728 L63.5 655 121 751 0 728"/>
    <path stroke="none" fill="#2A183D" d="M121 751 L63.5 655 206 681 121 751"/>
    <path stroke="none" fill="#181237" d="M451.95 722 L518.45 660 540 728 451.95 722"/>
    <path stroke="none" fill="#0F0B34" d="M451.95 722 L540 728 492.45 798.5 451.95 722"/>
    <path stroke="none" fill="#431338" d="M448.95 380 L502.95 458.5 416.45 503.5 448.95 380"/>
    <path stroke="none" fill="#2F193E" d="M540 624 L540 658.45 518.45 660 540 624 M0 658.45 L0 623.95 32.65 572.75 63.5 655 0 658.45 M397.95 638 L462.95 582 518.45 660 397.95 638"/>
    <path stroke="none" fill="#300A30" d="M397.95 638 L286 618.5 350.45 557 397.95 638"/>
    <path stroke="none" fill="#550F30" d="M540 352 L540 382.5 506.2 356 540 352 M0 382 L0 351.5 48 344.5 50.5 420 0 382 M212.5 316.55 L332.45 345.55 256.5 399.05 212.5 316.55"/>
    <path stroke="none" fill="#460B31" d="M332.45 345.55 L370.45 428.5 256.5 399.05 332.45 345.55"/>
    <path stroke="none" fill="#1D113A" d="M253.5 766 L385.45 788.5 305.45 855.5 253.5 766"/>
    <path stroke="none" fill="#0E1135" d="M432.95 871 L492.45 798.5 540 881 432.95 871"/>
    <path stroke="none" fill="#080D2E" d="M540 881 L540 960 479.95 960 483.45 955 540 881 M14.5 960 L0 960 0 881.5 14.5 960"/>
    <path stroke="none" fill="#0A0D36" d="M479.95 960 L352.45 960 362.45 948.5 483.45 955 479.95 960"/>
    <path stroke="none" fill="#19193F" d="M352.45 960 L190 960 224.5 927.5 362.45 948.5 352.45 960"/>
    <path stroke="none" fill="#0E1337" d="M483.45 955 L362.45 948.5 432.95 871 540 881 483.45 955"/>
    <path stroke="none" fill="#16163E" d="M305.45 855.5 L432.95 871 362.45 948.5 224.5 927.5 305.45 855.5"/>
    <path stroke="none" fill="#12103C" d="M305.45 855.5 L385.45 788.5 492.45 798.5 432.95 871 305.45 855.5"/>
    <path stroke="none" fill="#100830" d="M190 960 L104 960 83.5 924.5 224.5 927.5 190 960"/>
    <path stroke="none" fill="#160C36" d="M305.45 855.5 L224.5 927.5 173 841 305.45 855.5"/>
    <path stroke="none" fill="#150C33" d="M540 812.25 L540 881 492.45 798.5 540 812.25 M0 881.5 L0 812.5 28.5 819.5 0 881.5 M173 841 L224.5 927.5 83.5 924.5 173 841"/>
    <path stroke="none" fill="#1F1338" d="M173 841 L253.5 766 305.45 855.5 173 841"/>
    <path stroke="none" fill="#1B1030" d="M0 881.5 L28.5 819.5 83.5 924.5 0 881.5"/>
    <path stroke="none" fill="#150831" d="M0 881.5 L83.5 924.5 41 960 14.5 960 0 881.5"/>
    <path stroke="none" fill="#0E062D" d="M104 960 L41 960 83.5 924.5 104 960"/>
    <path stroke="none" fill="#211736" d="M83.5 924.5 L28.5 819.5 173 841 83.5 924.5"/>
    <path stroke="none" fill="#1E0B32" d="M28.5 819.5 L121 751 173 841 28.5 819.5"/>
    <path stroke="none" fill="#121336" d="M28.5 819.5 L0 812.5 0 728 28.5 819.5 M540 728 L540 812.25 492.45 798.5 540 728"/>
    <path stroke="none" fill="#221339" d="M540 728 L518.45 660 451.95 722 328.45 698.5 397.95 638 518.45 660 540 658.45 540 728 M0 728 L0 658.45 63.5 655 0 728"/>
    <path stroke="none" fill="#240E3D" d="M121 751 L206 681 328.45 698.5 253.5 766 121 751"/>
    <path stroke="none" fill="url(#gradient1)" d="M540 0 L540 960 0 960 0 0 540 0"/>
  </g>
</svg>