<svg preserveAspectRatio="none" viewBox="0 0 200 70" xmlns="http://www.w3.org/2000/svg" xmlns:xlink="http://www.w3.org/1999/xlink">
  <defs>
    <linearGradient gradientUnits="userSpaceOnUse" x1="-819.2" x2="819.2" spreadMethod="pad" gradientTransform="matrix(0 0.0710601806640625 -0.0388031005859375 0 99.2 32.85)" id="gradient0">
      <stop offset="0" stop-color="#CA4545"/>
      <stop offset="1" stop-color="#A42020"/>
    </linearGradient>
    <linearGradient gradientUnits="userSpaceOnUse" x1="-819.2" x2="819.2" spreadMethod="pad" gradientTransform="matrix(0 0.035888671875 -0.0388031005859375 0 104.05 34.25)" id="gradient1">
      <stop offset="0" stop-color="#1C66B5"/>
      <stop offset="1" stop-color="#0E57A6"/>
    </linearGradient>
  </defs>
  <g>
    <path stroke="none" fill="#B73333" d="M192.8 8.85 L198.6 43.05 180.65 60.3 112.05 68.8 32.4 65.35 8.9 55.25 1.25 18.4 15.25 5.1 152.95 0.85 192.8 8.85"/>
    <path stroke="none" fill="#DE5858" d="M189.35 12 L153.2 4.6 51.9 8.3 11.55 15.2 6.3 21.55 10.25 40.15 1.25 18.4 11.55 15.2 15.25 5.1 51.9 8.3 152.95 0.85 189.35 12"/>
    <path stroke="none" fill="#C52727" d="M192 43.85 L198.6 43.05 180.65 60.3 192 43.85 M1.25 18.4 L10.25 40.15 8.9 55.25 1.25 18.4"/>
    <path stroke="none" fill="#A52929" d="M10.25 40.15 L14.2 52.35 112.35 64.8 8.9 55.25 10.25 40.15"/>
    <path stroke="none" fill="#7D2020" d="M8.9 55.25 L112.05 68.8 150.05 59 180.65 60.3 112.05 68.8 32.4 65.35 8.9 55.25"/>
    <path stroke="none" fill="#8C2424" d="M8.9 55.25 L112.35 64.8 150.05 59 177.75 54.75 192 43.85 180.65 60.3 150.05 59 112.05 68.8 8.9 55.25"/>
    <path stroke="none" fill="#E06565" d="M192 43.85 L189.35 12 192.8 8.85 198.6 43.05 192 43.85 M15.25 5.1 L11.55 15.2 1.25 18.4 15.25 5.1"/>
    <path stroke="none" fill="#E37575" d="M15.25 5.1 L152.95 0.85 192.8 8.85 189.35 12 152.95 0.85 51.9 8.3 15.25 5.1"/>
    <path stroke="none" fill="url(#gradient0)" d="M189.35 12 L192 43.85 177.75 54.75 150.05 59 112.35 64.8 14.2 52.35 10.25 40.15 6.3 21.55 11.55 15.2 51.9 8.3 153.2 4.6 189.35 12"/>
    <path stroke="none" fill="#135CAD" d="M192.8 8.85 L198.6 43.05 180.65 60.3 112.05 68.8 32.4 65.35 8.9 55.25 1.25 18.4 15.25 5.1 152.95 0.85 192.8 8.85"/>
    <path stroke="none" fill="#4085D1" d="M192.8 8.85 L198.6 43.05 192 43.85 189.35 12 192.8 8.85 M1.25 18.4 L15.25 5.1 11.55 15.2 1.25 18.4"/>
    <path stroke="none" fill="#508DD0" d="M192.8 8.85 L189.35 12 152.95 0.85 192.8 8.85 M15.25 5.1 L152.95 0.85 51.9 8.3 15.25 5.1"/>
    <path stroke="none" fill="#337ED0" d="M15.25 5.1 L51.9 8.3 152.95 0.85 189.35 12 153.2 4.6 51.9 8.3 11.55 15.2 6.3 21.55 10.25 40.15 1.25 18.4 11.55 15.2 15.25 5.1"/>
    <path stroke="none" fill="#075EBE" d="M192 43.85 L198.6 43.05 180.65 60.3 192 43.85 M8.9 55.25 L1.25 18.4 10.25 40.15 8.9 55.25"/>
    <path stroke="none" fill="#0F539E" d="M8.9 55.25 L10.25 40.15 14.2 52.35 112.35 64.8 8.9 55.25"/>
    <path stroke="none" fill="#0C3F77" d="M8.9 55.25 L112.05 68.8 150.05 59 180.65 60.3 112.05 68.8 32.4 65.35 8.9 55.25"/>
    <path stroke="none" fill="#0D4786" d="M8.9 55.25 L112.35 64.8 150.05 59 177.75 54.75 192 43.85 180.65 60.3 150.05 59 112.05 68.8 8.9 55.25"/>
    <path stroke="none" fill="url(#gradient1)" d="M10.25 40.15 L6.3 21.55 11.55 15.2 51.9 8.3 153.2 4.6 189.35 12 192 43.85 177.75 54.75 150.05 59 112.35 64.8 14.2 52.35 10.25 40.15"/>
  </g>
</svg>