<?xml version="1.0" encoding="utf-8"?>
<!-- Generator: Adobe Illustrator 15.0.0, SVG Export Plug-In . SVG Version: 6.00 Build 0)  -->
<!DOCTYPE svg PUBLIC "-//W3C//DTD SVG 1.1//EN" "http://www.w3.org/Graphics/SVG/1.1/DTD/svg11.dtd">
<svg version="1.1" xmlns="http://www.w3.org/2000/svg" xmlns:xlink="http://www.w3.org/1999/xlink" x="0px" y="0px"
	 width="23.999px" height="71.991px" viewBox="0 0 23.999 71.991" enable-background="new 0 0 23.999 71.991" xml:space="preserve">
<g id="Calque_1">
	<rect x="14.998" y="21.997" width="1.1" height="1.1"/>
	<rect x="13.998" y="21.997" width="1.1" height="1.1"/>
	<rect x="12.998" y="21.997" width="1.1" height="1.1"/>
	<rect x="11.998" y="21.997" width="1.1" height="1.1"/>
	<rect x="10.999" y="21.997" width="1.1" height="1.1"/>
	<rect x="9.999" y="21.997" width="1.1" height="1.1"/>
	<rect x="15.998" y="20.997" width="1.1" height="1.1"/>
	<rect x="14.998" y="20.997" fill="#DD1E3E" width="1.1" height="1.1"/>
	<rect x="13.998" y="20.997" fill="#9C0018" width="1.1" height="1.1"/>
	<rect x="12.998" y="20.997" fill="#8B0B23" width="1.1" height="1.1"/>
	<rect x="11.998" y="20.997" fill="#8B0B24" width="1.1" height="1.1"/>
	<rect x="10.999" y="20.997" fill="#8B0B25" width="1.1" height="1.1"/>
	<rect x="9.999" y="20.997" fill="#8B0B25" width="1.1" height="1.1"/>
	<rect x="8.999" y="20.997" width="1.1" height="1.1"/>
	<rect x="7.999" y="20.997" width="1.1" height="1.1"/>
	<rect x="16.998" y="19.998" width="1.1" height="1.099"/>
	<rect x="15.998" y="19.998" fill="#DD1D3C" width="1.1" height="1.099"/>
	<rect x="14.998" y="19.998" fill="#9C0017" width="1.1" height="1.099"/>
	<rect x="13.998" y="19.998" fill="#8B0A22" width="1.1" height="1.099"/>
	<rect x="12.998" y="19.998" fill="#8B0B23" width="1.1" height="1.099"/>
	<rect x="11.998" y="19.998" fill="#8B0B23" width="1.1" height="1.099"/>
	<rect x="10.999" y="19.998" fill="#8B0B24" width="1.1" height="1.099"/>
	<rect x="9.999" y="19.998" fill="#8B0B25" width="1.1" height="1.099"/>
	<rect x="8.999" y="19.998" fill="#5F0C21" width="1.1" height="1.099"/>
	<rect x="7.999" y="19.998" fill="#5F0C21" width="1.1" height="1.099"/>
	<rect x="6.999" y="19.998" width="1.1" height="1.099"/>
	<rect x="17.998" y="18.998" width="1.1" height="1.1"/>
	<rect x="16.998" y="18.998" fill="#DD1C3B" width="1.1" height="1.1"/>
	<rect x="15.998" y="18.998" fill="#8B0A20" width="1.1" height="1.1"/>
	<rect x="14.998" y="18.998" fill="#8B0A21" width="1.1" height="1.1"/>
	<rect x="13.998" y="18.998" fill="#5F0A1D" width="1.1" height="1.1"/>
	<rect x="12.998" y="18.998" fill="#5F0B1E" width="1.1" height="1.1"/>
	<rect x="11.998" y="18.998" fill="#5F0B1F" width="1.1" height="1.1"/>
	<rect x="10.999" y="18.998" fill="#5F0B1F" width="1.1" height="1.1"/>
	<rect x="9.999" y="18.998" fill="#5F0B20" width="1.1" height="1.1"/>
	<rect x="8.999" y="18.998" fill="#5F0C21" width="1.1" height="1.1"/>
	<rect x="7.999" y="18.998" fill="#5F0C21" width="1.1" height="1.1"/>
	<rect x="6.999" y="18.998" fill="#8B0C26" width="1.1" height="1.1"/>
	<rect x="5.999" y="18.998" width="1.1" height="1.1"/>
	<rect x="17.998" y="17.998" width="1.1" height="1.1"/>
	<rect x="16.998" y="17.998" fill="#8B0A20" width="1.1" height="1.1"/>
	<rect x="15.998" y="17.998" fill="#C16D14" width="1.1" height="1.1"/>
	<rect x="14.998" y="17.998" fill="#C16E14" width="1.1" height="1.1"/>
	<rect x="13.998" y="17.998" fill="#A25514" width="1.1" height="1.1"/>
	<rect x="12.998" y="17.998" fill="#A25614" width="1.1" height="1.1"/>
	<rect x="11.998" y="17.998" fill="#723810" width="1.1" height="1.1"/>
	<rect x="10.999" y="17.998" fill="#723A11" width="1.1" height="1.1"/>
	<rect x="9.999" y="17.998" fill="#5F0B20" width="1.1" height="1.1"/>
	<rect x="8.999" y="17.998" fill="#5F0C21" width="1.1" height="1.1"/>
	<rect x="7.999" y="17.998" fill="#8B0C26" width="1.1" height="1.1"/>
	<rect x="6.999" y="17.998" fill="#8B0C26" width="1.1" height="1.1"/>
	<rect x="5.999" y="17.998" width="1.1" height="1.1"/>
	<rect x="20.997" y="16.998" width="1.1" height="1.1"/>
	<rect x="19.997" y="16.998" width="1.1" height="1.1"/>
	<rect x="17.998" y="16.998" width="1.1" height="1.1"/>
	<rect x="16.998" y="16.998" fill="#C16C13" width="1.1" height="1.1"/>
	<rect x="15.998" y="16.998" fill="#89091E" width="1.1" height="1.1"/>
	<rect x="14.998" y="16.998" fill="#9C0016" width="1.1" height="1.1"/>
	<rect x="13.998" y="16.998" fill="#9C0017" width="1.1" height="1.1"/>
	<rect x="12.998" y="16.998" fill="#9C0018" width="1.1" height="1.1"/>
	<rect x="11.998" y="16.998" fill="#8B0B23" width="1.1" height="1.1"/>
	<rect x="10.999" y="16.998" fill="#5F0B1F" width="1.1" height="1.1"/>
	<rect x="9.999" y="16.998" fill="#723A11" width="1.1" height="1.1"/>
	<rect x="8.999" y="16.998" fill="#A25B16" width="1.1" height="1.1"/>
	<rect x="7.999" y="16.998" fill="#8B0C26" width="1.1" height="1.1"/>
	<rect x="6.999" y="16.998" fill="#9C001A" width="1.1" height="1.1"/>
	<rect x="5.999" y="16.998" width="1.1" height="1.1"/>
	<rect x="21.997" y="15.998" width="1.1" height="1.1"/>
	<rect x="20.997" y="15.998" fill="#320F11" width="1.1" height="1.1"/>
	<rect x="19.997" y="15.998" fill="#320F11" width="1.1" height="1.1"/>
	<rect x="18.998" y="15.998" width="1.099" height="1.1"/>
	<rect x="17.998" y="15.998" width="1.1" height="1.1"/>
	<rect x="16.998" y="15.998" fill="#9C0016" width="1.1" height="1.1"/>
	<rect x="15.998" y="15.998" fill="#89091E" width="1.1" height="1.1"/>
	<rect x="14.998" y="15.998" fill="#9C0016" width="1.1" height="1.1"/>
	<rect x="13.998" y="15.998" fill="#9C0017" width="1.1" height="1.1"/>
	<rect x="12.998" y="15.998" fill="#9C0018" width="1.1" height="1.1"/>
	<rect x="11.998" y="15.998" fill="#8B0B23" width="1.1" height="1.1"/>
	<rect x="10.999" y="15.998" fill="#5F0B1F" width="1.1" height="1.1"/>
	<rect x="9.999" y="15.998" fill="#5F0B20" width="1.1" height="1.1"/>
	<rect x="8.999" y="15.998" fill="#8B0B25" width="1.1" height="1.1"/>
	<rect x="7.999" y="15.998" fill="#C17517" width="1.1" height="1.1"/>
	<rect x="6.999" y="15.998" width="1.1" height="1.1"/>
	<rect x="5.999" y="15.998" width="1.1" height="1.1"/>
	<rect x="4" y="15.998" width="1.1" height="1.1"/>
	<rect x="3" y="15.998" width="1.1" height="1.1"/>
	<rect x="21.997" y="14.998" width="1.1" height="1.1"/>
	<rect x="20.997" y="14.998" fill="#320F11" width="1.1" height="1.1"/>
	<rect x="19.997" y="14.998" fill="#DD1C3A" width="1.1" height="1.1"/>
	<rect x="18.998" y="14.998" fill="#9C0016" width="1.099" height="1.1"/>
	<rect x="17.998" y="14.998" fill="#9C0016" width="1.1" height="1.1"/>
	<rect x="16.998" y="14.998" fill="#9C0016" width="1.1" height="1.1"/>
	<rect x="15.998" y="14.998" fill="#9C0016" width="1.1" height="1.1"/>
	<rect x="14.998" y="14.998" fill="#9C0016" width="1.1" height="1.1"/>
	<rect x="13.998" y="14.998" fill="#976C70" width="1.1" height="1.1"/>
	<rect x="12.998" y="14.998" fill="#8B0A22" width="1.1" height="1.1"/>
	<rect x="11.998" y="14.998" fill="#5F0B1E" width="1.1" height="1.1"/>
	<rect x="10.999" y="14.998" fill="#5F0B1F" width="1.1" height="1.1"/>
	<rect x="9.999" y="14.998" fill="#5F0B20" width="1.1" height="1.1"/>
	<rect x="8.999" y="14.998" fill="#5F0B20" width="1.1" height="1.1"/>
	<rect x="7.999" y="14.998" fill="#5F0C21" width="1.1" height="1.1"/>
	<rect x="6.999" y="14.998" fill="#600D22" width="1.1" height="1.1"/>
	<rect x="5.999" y="14.998" fill="#8B0C27" width="1.1" height="1.1"/>
	<rect x="5" y="14.998" width="1.1" height="1.1"/>
	<rect x="4" y="14.998" fill="#321315" width="1.1" height="1.1"/>
	<rect x="3" y="14.998" fill="#321315" width="1.1" height="1.1"/>
	<rect x="2" y="14.998" width="1.1" height="1.1"/>
	<rect x="20.997" y="13.998" width="1.1" height="1.1"/>
	<rect x="19.997" y="13.998" fill="#DD1C3A" width="1.1" height="1.1"/>
	<rect x="18.998" y="13.998" fill="#DD1C3B" width="1.099" height="1.1"/>
	<rect x="17.998" y="13.998" fill="#DD1C3B" width="1.1" height="1.1"/>
	<rect x="16.998" y="13.998" fill="#9C0016" width="1.1" height="1.1"/>
	<rect x="15.998" y="13.998" fill="#8B0A20" width="1.1" height="1.1"/>
	<rect x="14.998" y="13.998" fill="#EAD2B0" width="1.1" height="1.1"/>
	<rect x="13.998" y="13.998" fill="#BF9C8D" width="1.1" height="1.1"/>
	<rect x="12.998" y="13.998" fill="#855C66" width="1.1" height="1.1"/>
	<rect x="11.998" y="13.998" fill="#976F76" width="1.1" height="1.1"/>
	<rect x="10.999" y="13.998" fill="#977079" width="1.1" height="1.1"/>
	<rect x="9.999" y="13.998" fill="#4E3145" width="1.1" height="1.1"/>
	<rect x="8.999" y="13.998" fill="#5F0B20" width="1.1" height="1.1"/>
	<rect x="7.999" y="13.998" fill="#5F0C21" width="1.1" height="1.1"/>
	<rect x="6.999" y="13.998" fill="#8B0C26" width="1.1" height="1.1"/>
	<rect x="5.999" y="13.998" fill="#9C001B" width="1.1" height="1.1"/>
	<rect x="5" y="13.998" fill="#9C001B" width="1.1" height="1.1"/>
	<rect x="4" y="13.998" fill="#321315" width="1.1" height="1.1"/>
	<rect x="3" y="13.998" fill="#321315" width="1.1" height="1.1"/>
	<rect x="2" y="13.998" width="1.1" height="1.1"/>
	<rect x="19.997" y="12.998" width="1.1" height="1.1"/>
	<rect x="18.998" y="12.998" fill="#DD1C3A" width="1.099" height="1.1"/>
	<rect x="17.998" y="12.998" fill="#8B0A1F" width="1.1" height="1.1"/>
	<rect x="16.998" y="12.998" fill="#976A6B" width="1.1" height="1.1"/>
	<rect x="15.998" y="12.998" fill="#EAD1AE" width="1.1" height="1.1"/>
	<rect x="14.998" y="12.998" fill="#EAD2B0" width="1.1" height="1.1"/>
	<rect x="13.998" y="12.998" fill="#BF9C8D" width="1.1" height="1.1"/>
	<rect x="12.998" y="12.998" fill="#BF9D91" width="1.1" height="1.1"/>
	<rect x="11.998" y="12.998" fill="#855E69" width="1.1" height="1.1"/>
	<rect x="10.999" y="12.998" fill="#5F0B1F" width="1.1" height="1.1"/>
	<rect x="9.999" y="12.998" fill="#97717B" width="1.1" height="1.1"/>
	<rect x="8.999" y="12.998" fill="#97727E" width="1.1" height="1.1"/>
	<rect x="7.999" y="12.998" fill="#4E3247" width="1.1" height="1.1"/>
	<rect x="6.999" y="12.998" fill="#8B0C26" width="1.1" height="1.1"/>
	<rect x="5.999" y="12.998" fill="#9C001B" width="1.1" height="1.1"/>
	<rect x="5" y="12.998" fill="#9C001B" width="1.1" height="1.1"/>
	<rect x="4" y="12.998" fill="#9C001B" width="1.1" height="1.1"/>
	<rect x="3" y="12.998" width="1.1" height="1.1"/>
	<rect x="19.997" y="11.999" width="1.1" height="1.099"/>
	<rect x="18.998" y="11.999" fill="#E7CFAA" width="1.099" height="1.099"/>
	<rect x="17.998" y="11.999" fill="#976A6A" width="1.1" height="1.099"/>
	<rect x="16.998" y="11.999" fill="#EAD1AC" width="1.1" height="1.099"/>
	<rect x="15.998" y="11.999" fill="#EAD1AE" width="1.1" height="1.099"/>
	<rect x="14.998" y="11.999" width="1.1" height="1.099"/>
	<rect x="13.998" y="11.999" width="1.1" height="1.099"/>
	<rect x="12.998" y="11.999" fill="#BF9D90" width="1.1" height="1.099"/>
	<rect x="11.998" y="11.999" fill="#BF9F94" width="1.1" height="1.099"/>
	<rect x="10.999" y="11.999" fill="#855F6B" width="1.1" height="1.099"/>
	<rect x="9.999" y="11.999" fill="#5F0B20" width="1.1" height="1.099"/>
	<rect x="8.999" y="11.999" fill="#5F0B20" width="1.1" height="1.099"/>
	<rect x="7.999" y="11.999" fill="#977380" width="1.1" height="1.099"/>
	<rect x="6.999" y="11.999" fill="#4E3348" width="1.1" height="1.099"/>
	<rect x="5.999" y="11.999" fill="#8B0C27" width="1.1" height="1.099"/>
	<rect x="5" y="11.999" fill="#4E3449" width="1.1" height="1.099"/>
	<rect x="4" y="11.999" width="1.1" height="1.099"/>
	<rect x="20.997" y="10.999" width="1.1" height="1.1"/>
	<rect x="19.997" y="10.999" fill="#E7CFAA" width="1.1" height="1.1"/>
	<rect x="18.998" y="10.999" fill="#976A6A" width="1.099" height="1.1"/>
	<rect x="17.998" y="10.999" fill="#EAD1AB" width="1.1" height="1.1"/>
	<rect x="16.998" y="10.999" fill="#EAD1AC" width="1.1" height="1.1"/>
	<rect x="15.998" y="10.999" width="1.1" height="1.1"/>
	<rect x="14.998" y="10.999" width="1.1" height="1.1"/>
	<rect x="13.998" y="10.999" width="1.1" height="1.1"/>
	<rect x="12.998" y="10.999" width="1.1" height="1.1"/>
	<rect x="11.998" y="10.999" width="1.1" height="1.1"/>
	<rect x="10.999" y="10.999" fill="#BFA098" width="1.1" height="1.1"/>
	<rect x="9.999" y="10.999" fill="#85606E" width="1.1" height="1.1"/>
	<rect x="8.999" y="10.999" fill="#5F0B20" width="1.1" height="1.1"/>
	<rect x="7.999" y="10.999" fill="#97737F" width="1.1" height="1.1"/>
	<rect x="6.999" y="10.999" fill="#977481" width="1.1" height="1.1"/>
	<rect x="5.999" y="10.999" fill="#4E3349" width="1.1" height="1.1"/>
	<rect x="5" y="10.999" fill="#4E3449" width="1.1" height="1.1"/>
	<rect x="4" y="10.999" width="1.1" height="1.1"/>
	<rect x="20.997" y="9.999" width="1.1" height="1.1"/>
	<rect x="19.997" y="9.999" fill="#F8E9C0" width="1.1" height="1.1"/>
	<rect x="18.998" y="9.999" fill="#F8E9C0" width="1.099" height="1.1"/>
	<rect x="17.998" y="9.999" fill="#EAD1AB" width="1.1" height="1.1"/>
	<rect x="16.998" y="9.999" width="1.1" height="1.1"/>
	<rect x="15.998" y="9.999" width="1.1" height="1.1"/>
	<rect x="14.998" y="9.999" fill="#1D0F1B" width="1.1" height="1.1"/>
	<rect x="13.998" y="9.999" fill="#1D0F1C" width="1.1" height="1.1"/>
	<rect x="12.998" y="9.999" fill="#1D101C" width="1.1" height="1.1"/>
	<rect x="11.998" y="9.999" fill="#1D101D" width="1.1" height="1.1"/>
	<rect x="10.999" y="9.999" width="1.1" height="1.1"/>
	<rect x="9.999" y="9.999" fill="#85606E" width="1.1" height="1.1"/>
	<rect x="8.999" y="9.999" fill="#5F0B20" width="1.1" height="1.1"/>
	<rect x="7.999" y="9.999" fill="#5F0C21" width="1.1" height="1.1"/>
	<rect x="6.999" y="9.999" width="1.1" height="1.1"/>
	<rect x="5.999" y="9.999" fill="#977482" width="1.1" height="1.1"/>
	<rect x="5" y="9.999" fill="#977583" width="1.1" height="1.1"/>
	<rect x="4" y="9.999" width="1.1" height="1.1"/>
	<rect x="19.997" y="8.999" width="1.1" height="1.1"/>
	<rect x="18.998" y="8.999" width="1.099" height="1.1"/>
	<rect x="17.998" y="8.999" fill="#EAD1AB" width="1.1" height="1.1"/>
	<rect x="16.998" y="8.999" width="1.1" height="1.1"/>
	<rect x="15.998" y="8.999" width="1.1" height="1.1"/>
	<rect x="14.998" y="8.999" fill="#1D0F1B" width="1.1" height="1.1"/>
	<rect x="13.998" y="8.999" fill="#1D0F1C" width="1.1" height="1.1"/>
	<rect x="12.998" y="8.999" fill="#1D101C" width="1.1" height="1.1"/>
	<rect x="11.998" y="8.999" fill="#1D101D" width="1.1" height="1.1"/>
	<rect x="10.999" y="8.999" width="1.1" height="1.1"/>
	<rect x="9.999" y="8.999" fill="#85606E" width="1.1" height="1.1"/>
	<rect x="8.999" y="8.999" fill="#5F0B20" width="1.1" height="1.1"/>
	<rect x="7.999" y="8.999" fill="#8B0C26" width="1.1" height="1.1"/>
	<rect x="6.999" y="8.999" width="1.1" height="1.1"/>
	<rect x="5.999" y="8.999" width="1.1" height="1.1"/>
	<rect x="5" y="8.999" width="1.1" height="1.1"/>
	<rect x="18.998" y="7.999" width="1.099" height="1.1"/>
	<rect x="17.998" y="7.999" fill="#EAD1AB" width="1.1" height="1.1"/>
	<rect x="16.998" y="7.999" width="1.1" height="1.1"/>
	<rect x="15.998" y="7.999" fill="#DFB39A" width="1.1" height="1.1"/>
	<rect x="14.998" y="7.999" fill="#95515E" width="1.1" height="1.1"/>
	<rect x="13.998" y="7.999" fill="#1D0F1C" width="1.1" height="1.1"/>
	<rect x="12.998" y="7.999" fill="#E3BCA7" width="1.1" height="1.1"/>
	<rect x="11.998" y="7.999" fill="#955465" width="1.1" height="1.1"/>
	<rect x="10.999" y="7.999" width="1.1" height="1.1"/>
	<rect x="9.999" y="7.999" fill="#85606E" width="1.1" height="1.1"/>
	<rect x="8.999" y="7.999" fill="#8B0B25" width="1.1" height="1.1"/>
	<rect x="7.999" y="7.999" fill="#8B0C25" width="1.1" height="1.1"/>
	<rect x="6.999" y="7.999" width="1.1" height="1.1"/>
	<rect x="18.998" y="6.999" width="1.099" height="1.1"/>
	<rect x="17.998" y="6.999" fill="#EAD1AB" width="1.1" height="1.1"/>
	<rect x="16.998" y="6.999" width="1.1" height="1.1"/>
	<rect x="15.998" y="6.999" fill="#95505D" width="1.1" height="1.1"/>
	<rect x="14.998" y="6.999" fill="#1D0F1B" width="1.1" height="1.1"/>
	<rect x="13.998" y="6.999" fill="#1D0F1C" width="1.1" height="1.1"/>
	<rect x="12.998" y="6.999" fill="#1D0F1C" width="1.1" height="1.1"/>
	<rect x="11.998" y="6.999" fill="#955465" width="1.1" height="1.1"/>
	<rect x="10.999" y="6.999" width="1.1" height="1.1"/>
	<rect x="9.999" y="6.999" fill="#85606D" width="1.1" height="1.1"/>
	<rect x="8.999" y="6.999" fill="#8B0B25" width="1.1" height="1.1"/>
	<rect x="7.999" y="6.999" fill="#8B0C26" width="1.1" height="1.1"/>
	<rect x="6.999" y="6.999" width="1.1" height="1.1"/>
	<rect x="18.998" y="5.999" width="1.099" height="1.1"/>
	<rect x="17.998" y="5.999" fill="#EAD1AB" width="1.1" height="1.1"/>
	<rect x="16.998" y="5.999" width="1.1" height="1.1"/>
	<rect x="15.998" y="5.999" width="1.1" height="1.1"/>
	<rect x="14.998" y="5.999" width="1.1" height="1.1"/>
	<rect x="13.998" y="5.999" fill="#1D0F1C" width="1.1" height="1.1"/>
	<rect x="12.998" y="5.999" fill="#1D0F1C" width="1.1" height="1.1"/>
	<rect x="11.998" y="5.999" width="1.1" height="1.1"/>
	<rect x="10.999" y="5.999" width="1.1" height="1.1"/>
	<rect x="9.999" y="5.999" fill="#85606D" width="1.1" height="1.1"/>
	<rect x="8.999" y="5.999" fill="#8B0B25" width="1.1" height="1.1"/>
	<rect x="7.999" y="5.999" fill="#8B0C25" width="1.1" height="1.1"/>
	<rect x="6.999" y="5.999" width="1.1" height="1.1"/>
	<rect x="18.998" y="5" width="1.099" height="1.1"/>
	<rect x="17.998" y="5" fill="#DD1C3B" width="1.1" height="1.1"/>
	<rect x="16.998" y="5" fill="#EAD1AC" width="1.1" height="1.1"/>
	<rect x="15.998" y="5" width="1.1" height="1.1"/>
	<rect x="14.998" y="5" width="1.1" height="1.1"/>
	<rect x="13.998" y="5" width="1.1" height="1.1"/>
	<rect x="12.998" y="5" width="1.1" height="1.1"/>
	<rect x="11.998" y="5" width="1.1" height="1.1"/>
	<rect x="10.999" y="5" fill="#855F6B" width="1.1" height="1.1"/>
	<rect x="9.999" y="5" fill="#8B0B24" width="1.1" height="1.1"/>
	<rect x="8.999" y="5" fill="#8B0B25" width="1.1" height="1.1"/>
	<rect x="7.999" y="5" fill="#9C001A" width="1.1" height="1.1"/>
	<rect x="6.999" y="5" width="1.1" height="1.1"/>
	<rect x="18.998" y="4" width="1.099" height="1.1"/>
	<rect x="17.998" y="4" fill="#DD1C3B" width="1.1" height="1.1"/>
	<rect x="16.998" y="4" fill="#DD1C3B" width="1.1" height="1.1"/>
	<rect x="15.998" y="4" fill="#EAD1AD" width="1.1" height="1.1"/>
	<rect x="14.998" y="4" width="1.1" height="1.1"/>
	<rect x="13.998" y="4" width="1.1" height="1.1"/>
	<rect x="12.998" y="4" fill="#BF9D8F" width="1.1" height="1.1"/>
	<rect x="11.998" y="4" fill="#855D68" width="1.1" height="1.1"/>
	<rect x="10.999" y="4" fill="#8B0B23" width="1.1" height="1.1"/>
	<rect x="9.999" y="4" fill="#9C0019" width="1.1" height="1.1"/>
	<rect x="8.999" y="4" fill="#9C001A" width="1.1" height="1.1"/>
	<rect x="7.999" y="4" width="1.1" height="1.1"/>
	<rect x="17.998" y="3" width="1.1" height="1.1"/>
	<rect x="16.998" y="3" fill="#DD1C3B" width="1.1" height="1.1"/>
	<rect x="15.998" y="3" fill="#9C0016" width="1.1" height="1.1"/>
	<rect x="14.998" y="3" fill="#EAD2AF" width="1.1" height="1.1"/>
	<rect x="13.998" y="3" fill="#BF9C8C" width="1.1" height="1.1"/>
	<rect x="12.998" y="3" fill="#9C0017" width="1.1" height="1.1"/>
	<rect x="11.998" y="3" fill="#9C0018" width="1.1" height="1.1"/>
	<rect x="10.999" y="3" fill="#9C0018" width="1.1" height="1.1"/>
	<rect x="9.999" y="3" fill="#9C0019" width="1.1" height="1.1"/>
	<rect x="8.999" y="3" width="1.1" height="1.1"/>
	<rect x="16.998" y="2" width="1.1" height="1.1"/>
	<rect x="15.998" y="2" fill="#DD1C3B" width="1.1" height="1.1"/>
	<rect x="14.998" y="2" fill="#DD1D3C" width="1.1" height="1.1"/>
	<rect x="13.998" y="2" fill="#9C0017" width="1.1" height="1.1"/>
	<rect x="12.998" y="2" fill="#9C0017" width="1.1" height="1.1"/>
	<rect x="11.998" y="2" fill="#9C0018" width="1.1" height="1.1"/>
	<rect x="10.999" y="2" fill="#9C0019" width="1.1" height="1.1"/>
	<rect x="9.999" y="2" width="1.1" height="1.1"/>
	<rect x="15.998" y="1" width="1.1" height="1.1"/>
	<rect x="14.998" y="1" fill="#DD1D3D" width="1.1" height="1.1"/>
	<rect x="13.998" y="1" fill="#DD1E3E" width="1.1" height="1.1"/>
	<rect x="12.998" y="1" fill="#9C0018" width="1.1" height="1.1"/>
	<rect x="11.998" y="1" width="1.1" height="1.1"/>
	<rect x="10.999" y="1" width="1.1" height="1.1"/>
	<rect x="14.998" width="1.1" height="1.1"/>
	<rect x="13.998" width="1.1" height="1.1"/>
	<rect x="12.998" width="1.1" height="1.1"/>
</g>
<g id="Calque_2">
	<rect x="15.001" y="69.994" width="1.1" height="1.1"/>
	<rect x="14.001" y="69.994" width="1.1" height="1.1"/>
	<rect x="13.001" y="69.994" width="1.1" height="1.1"/>
	<rect x="12.001" y="69.994" width="1.1" height="1.1"/>
	<rect x="11.001" y="69.994" width="1.1" height="1.1"/>
	<rect x="10.001" y="69.994" width="1.1" height="1.1"/>
	<rect x="16.001" y="68.994" width="1.1" height="1.1"/>
	<rect x="15.001" y="68.994" fill="#DD1E3E" width="1.1" height="1.1"/>
	<rect x="14.001" y="68.994" fill="#9C0018" width="1.1" height="1.1"/>
	<rect x="13.001" y="68.994" fill="#8B0B23" width="1.1" height="1.1"/>
	<rect x="12.001" y="68.994" fill="#8B0B24" width="1.1" height="1.1"/>
	<rect x="11.001" y="68.994" fill="#8B0B25" width="1.1" height="1.1"/>
	<rect x="10.001" y="68.994" fill="#8B0B25" width="1.1" height="1.1"/>
	<rect x="9.001" y="68.994" width="1.1" height="1.1"/>
	<rect x="8.001" y="68.994" width="1.1" height="1.1"/>
	<rect x="17.001" y="67.994" width="1.1" height="1.1"/>
	<rect x="16.001" y="67.994" fill="#DD1D3C" width="1.1" height="1.1"/>
	<rect x="15.001" y="67.994" fill="#9C0017" width="1.1" height="1.1"/>
	<rect x="14.001" y="67.994" fill="#8B0A22" width="1.1" height="1.1"/>
	<rect x="13.001" y="67.994" fill="#8B0B23" width="1.1" height="1.1"/>
	<rect x="12.001" y="67.994" fill="#8B0B23" width="1.1" height="1.1"/>
	<rect x="11.001" y="67.994" fill="#8B0B24" width="1.1" height="1.1"/>
	<rect x="10.001" y="67.994" fill="#8B0B25" width="1.1" height="1.1"/>
	<rect x="9.001" y="67.994" fill="#5F0C21" width="1.1" height="1.1"/>
	<rect x="8.001" y="67.994" fill="#5F0C21" width="1.1" height="1.1"/>
	<rect x="7.001" y="67.994" width="1.1" height="1.1"/>
	<rect x="18.001" y="66.994" width="1.1" height="1.1"/>
	<rect x="17.001" y="66.994" fill="#DD1C3B" width="1.1" height="1.1"/>
	<rect x="16.001" y="66.994" fill="#8B0A20" width="1.1" height="1.1"/>
	<rect x="15.001" y="66.994" fill="#8B0A21" width="1.1" height="1.1"/>
	<rect x="14.001" y="66.994" fill="#5F0A1D" width="1.1" height="1.1"/>
	<rect x="13.001" y="66.994" fill="#5F0B1E" width="1.1" height="1.1"/>
	<rect x="12.001" y="66.994" fill="#5F0B1F" width="1.1" height="1.1"/>
	<rect x="11.001" y="66.994" fill="#5F0B1F" width="1.1" height="1.1"/>
	<rect x="10.001" y="66.994" fill="#5F0B20" width="1.1" height="1.1"/>
	<rect x="9.001" y="66.994" fill="#5F0C21" width="1.1" height="1.1"/>
	<rect x="8.001" y="66.994" fill="#5F0C21" width="1.1" height="1.1"/>
	<rect x="7.001" y="66.994" fill="#8B0C26" width="1.1" height="1.1"/>
	<rect x="6.001" y="66.994" width="1.1" height="1.1"/>
	<rect x="18.001" y="65.994" width="1.1" height="1.1"/>
	<rect x="17.001" y="65.994" fill="#8B0A20" width="1.1" height="1.1"/>
	<rect x="16.001" y="65.994" fill="#C16D14" width="1.1" height="1.1"/>
	<rect x="15.001" y="65.994" fill="#C16E14" width="1.1" height="1.1"/>
	<rect x="14.001" y="65.994" fill="#A25514" width="1.1" height="1.1"/>
	<rect x="13.001" y="65.994" fill="#A25614" width="1.1" height="1.1"/>
	<rect x="12.001" y="65.994" fill="#723810" width="1.1" height="1.1"/>
	<rect x="11.001" y="65.994" fill="#723A11" width="1.1" height="1.1"/>
	<rect x="10.001" y="65.994" fill="#5F0B20" width="1.1" height="1.1"/>
	<rect x="9.001" y="65.994" fill="#5F0C21" width="1.1" height="1.1"/>
	<rect x="8.001" y="65.994" fill="#8B0C26" width="1.1" height="1.1"/>
	<rect x="7.001" y="65.994" fill="#8B0C26" width="1.1" height="1.1"/>
	<rect x="6.001" y="65.994" width="1.1" height="1.1"/>
	<rect x="18.001" y="64.994" width="1.1" height="1.1"/>
	<rect x="17.001" y="64.994" fill="#C16C13" width="1.1" height="1.1"/>
	<rect x="16.001" y="64.994" fill="#89091E" width="1.1" height="1.1"/>
	<rect x="15.001" y="64.994" fill="#9C0016" width="1.1" height="1.1"/>
	<rect x="14.001" y="64.994" fill="#9C0017" width="1.1" height="1.1"/>
	<rect x="13.001" y="64.994" fill="#9C0018" width="1.1" height="1.1"/>
	<rect x="12.001" y="64.994" fill="#8B0B23" width="1.1" height="1.1"/>
	<rect x="11.001" y="64.994" fill="#5F0B1F" width="1.1" height="1.1"/>
	<rect x="10.001" y="64.994" fill="#723A11" width="1.1" height="1.1"/>
	<rect x="9.001" y="64.994" fill="#A25B16" width="1.1" height="1.1"/>
	<rect x="8.001" y="64.994" fill="#8B0C26" width="1.1" height="1.1"/>
	<rect x="7.001" y="64.994" fill="#9C001A" width="1.1" height="1.1"/>
	<rect x="6.001" y="64.994" width="1.1" height="1.1"/>
	<rect x="19.001" y="63.994" width="1.1" height="1.1"/>
	<rect x="18.001" y="63.994" width="1.1" height="1.1"/>
	<rect x="17.001" y="63.994" fill="#9C0016" width="1.1" height="1.1"/>
	<rect x="16.001" y="63.994" fill="#89091E" width="1.1" height="1.1"/>
	<rect x="15.001" y="63.994" fill="#9C0016" width="1.1" height="1.1"/>
	<rect x="14.001" y="63.994" fill="#9C0017" width="1.1" height="1.1"/>
	<rect x="13.001" y="63.994" fill="#9C0018" width="1.1" height="1.1"/>
	<rect x="12.001" y="63.994" fill="#8B0B23" width="1.1" height="1.1"/>
	<rect x="11.001" y="63.994" fill="#5F0B1F" width="1.1" height="1.1"/>
	<rect x="10.001" y="63.994" fill="#5F0B20" width="1.1" height="1.1"/>
	<rect x="9.001" y="63.994" fill="#8B0B25" width="1.1" height="1.1"/>
	<rect x="8.001" y="63.994" fill="#C17517" width="1.1" height="1.1"/>
	<rect x="7.001" y="63.994" width="1.1" height="1.1"/>
	<rect x="6.001" y="63.994" width="1.1" height="1.1"/>
	<rect x="20.001" y="62.994" width="1.1" height="1.1"/>
	<rect x="19.001" y="62.994" fill="#600A1C" width="1.1" height="1.1"/>
	<rect x="18.001" y="62.994" fill="#600A1C" width="1.1" height="1.1"/>
	<rect x="17.001" y="62.994" fill="#9C0016" width="1.1" height="1.1"/>
	<rect x="16.001" y="62.994" fill="#9C0016" width="1.1" height="1.1"/>
	<rect x="15.001" y="62.994" fill="#9C0016" width="1.1" height="1.1"/>
	<rect x="14.001" y="62.994" fill="#976C70" width="1.1" height="1.1"/>
	<rect x="13.001" y="62.994" fill="#8B0A22" width="1.1" height="1.1"/>
	<rect x="12.001" y="62.994" fill="#5F0B1E" width="1.1" height="1.1"/>
	<rect x="11.001" y="62.994" fill="#5F0B1F" width="1.1" height="1.1"/>
	<rect x="10.001" y="62.994" fill="#5F0B20" width="1.1" height="1.1"/>
	<rect x="9.001" y="62.994" fill="#5F0B20" width="1.1" height="1.1"/>
	<rect x="8.001" y="62.994" fill="#5F0C21" width="1.1" height="1.1"/>
	<rect x="7.001" y="62.994" fill="#600D22" width="1.1" height="1.1"/>
	<rect x="6.001" y="62.994" fill="#600D23" width="1.1" height="1.1"/>
	<rect x="5.001" y="62.994" width="1.1" height="1.1"/>
	<rect x="22.001" y="61.994" width="1.1" height="1.1"/>
	<rect x="21.001" y="61.994" width="1.1" height="1.1"/>
	<rect x="20.001" y="61.994" fill="#DD1C3A" width="1.1" height="1.1"/>
	<rect x="19.001" y="61.994" fill="#9C0016" width="1.1" height="1.1"/>
	<rect x="18.001" y="61.994" fill="#9C0016" width="1.1" height="1.1"/>
	<rect x="17.001" y="61.994" fill="#9C0016" width="1.1" height="1.1"/>
	<rect x="16.001" y="61.994" fill="#8B0A20" width="1.1" height="1.1"/>
	<rect x="15.001" y="61.994" fill="#EAD2B0" width="1.1" height="1.1"/>
	<rect x="14.001" y="61.994" fill="#BF9C8D" width="1.1" height="1.1"/>
	<rect x="13.001" y="61.994" fill="#855C66" width="1.1" height="1.1"/>
	<rect x="12.001" y="61.994" fill="#976F76" width="1.1" height="1.1"/>
	<rect x="11.001" y="61.994" fill="#977079" width="1.1" height="1.1"/>
	<rect x="10.001" y="61.994" fill="#4E3145" width="1.1" height="1.1"/>
	<rect x="9.001" y="61.994" fill="#5F0B20" width="1.1" height="1.1"/>
	<rect x="8.001" y="61.994" fill="#5F0C21" width="1.1" height="1.1"/>
	<rect x="7.001" y="61.994" fill="#8B0C26" width="1.1" height="1.1"/>
	<rect x="6.001" y="61.994" fill="#600D23" width="1.1" height="1.1"/>
	<rect x="5.001" y="61.994" fill="#600D23" width="1.1" height="1.1"/>
	<rect x="4.001" y="61.994" width="1.1" height="1.1"/>
	<rect x="3.001" y="61.994" width="1.1" height="1.1"/>
	<rect x="23.001" y="60.994" width="1.1" height="1.1"/>
	<rect x="22.001" y="60.994" fill="#320F11" width="1.1" height="1.1"/>
	<rect x="21.001" y="60.994" fill="#320F11" width="1.1" height="1.1"/>
	<rect x="20.001" y="60.994" width="1.1" height="1.1"/>
	<rect x="19.001" y="60.994" fill="#DD1C3A" width="1.1" height="1.1"/>
	<rect x="18.001" y="60.994" fill="#8B0A1F" width="1.1" height="1.1"/>
	<rect x="17.001" y="60.994" fill="#976A6B" width="1.1" height="1.1"/>
	<rect x="16.001" y="60.994" fill="#EAD1AE" width="1.1" height="1.1"/>
	<rect x="15.001" y="60.994" fill="#EAD2B0" width="1.1" height="1.1"/>
	<rect x="14.001" y="60.994" fill="#BF9C8D" width="1.1" height="1.1"/>
	<rect x="13.001" y="60.994" fill="#BF9D91" width="1.1" height="1.1"/>
	<rect x="12.001" y="60.994" fill="#855E69" width="1.1" height="1.1"/>
	<rect x="11.001" y="60.994" fill="#5F0B1F" width="1.1" height="1.1"/>
	<rect x="10.001" y="60.994" fill="#97717B" width="1.1" height="1.1"/>
	<rect x="9.001" y="60.994" fill="#97727E" width="1.1" height="1.1"/>
	<rect x="8.001" y="60.994" fill="#4E3247" width="1.1" height="1.1"/>
	<rect x="7.001" y="60.994" fill="#8B0C26" width="1.1" height="1.1"/>
	<rect x="6.001" y="60.994" fill="#9C001B" width="1.1" height="1.1"/>
	<rect x="5.001" y="60.994" fill="#9C001B" width="1.1" height="1.1"/>
	<rect x="4.001" y="60.994" fill="#321315" width="1.1" height="1.1"/>
	<rect x="3.001" y="60.994" fill="#321315" width="1.1" height="1.1"/>
	<rect x="2.001" y="60.994" width="1.1" height="1.1"/>
	<rect x="23.001" y="59.994" width="1.1" height="1.1"/>
	<rect x="22.001" y="59.994" fill="#320F11" width="1.1" height="1.1"/>
	<rect x="21.001" y="59.994" fill="#320F11" width="1.1" height="1.1"/>
	<rect x="20.001" y="59.994" width="1.1" height="1.1"/>
	<rect x="19.001" y="59.994" fill="#E7CFAA" width="1.1" height="1.1"/>
	<rect x="18.001" y="59.994" fill="#976A6A" width="1.1" height="1.1"/>
	<rect x="17.001" y="59.994" fill="#EAD1AC" width="1.1" height="1.1"/>
	<rect x="16.001" y="59.994" fill="#EAD1AE" width="1.1" height="1.1"/>
	<rect x="15.001" y="59.994" width="1.1" height="1.1"/>
	<rect x="14.001" y="59.994" width="1.1" height="1.1"/>
	<rect x="13.001" y="59.994" fill="#BF9D90" width="1.1" height="1.1"/>
	<rect x="12.001" y="59.994" fill="#BF9F94" width="1.1" height="1.1"/>
	<rect x="11.001" y="59.994" fill="#855F6B" width="1.1" height="1.1"/>
	<rect x="10.001" y="59.994" fill="#5F0B20" width="1.1" height="1.1"/>
	<rect x="9.001" y="59.994" fill="#5F0B20" width="1.1" height="1.1"/>
	<rect x="8.001" y="59.994" fill="#977380" width="1.1" height="1.1"/>
	<rect x="7.001" y="59.994" fill="#4E3348" width="1.1" height="1.1"/>
	<rect x="6.001" y="59.994" fill="#8B0C27" width="1.1" height="1.1"/>
	<rect x="5.001" y="59.994" fill="#4E3449" width="1.1" height="1.1"/>
	<rect x="4.001" y="59.994" fill="#321315" width="1.1" height="1.1"/>
	<rect x="3.001" y="59.994" fill="#321315" width="1.1" height="1.1"/>
	<rect x="2.001" y="59.994" width="1.1" height="1.1"/>
	<rect x="22.001" y="58.994" width="1.1" height="1.1"/>
	<rect x="21.001" y="58.994" width="1.1" height="1.1"/>
	<rect x="20.001" y="58.994" fill="#E7CFAA" width="1.1" height="1.1"/>
	<rect x="19.001" y="58.994" fill="#976A6A" width="1.1" height="1.1"/>
	<rect x="18.001" y="58.994" fill="#EAD1AB" width="1.1" height="1.1"/>
	<rect x="17.001" y="58.994" fill="#EAD1AC" width="1.1" height="1.1"/>
	<rect x="16.001" y="58.994" width="1.1" height="1.1"/>
	<rect x="15.001" y="58.994" width="1.1" height="1.1"/>
	<rect x="14.001" y="58.994" width="1.1" height="1.1"/>
	<rect x="13.001" y="58.994" width="1.1" height="1.1"/>
	<rect x="12.001" y="58.994" width="1.1" height="1.1"/>
	<rect x="11.001" y="58.994" fill="#BFA098" width="1.1" height="1.1"/>
	<rect x="10.001" y="58.994" fill="#85606E" width="1.1" height="1.1"/>
	<rect x="9.001" y="58.994" fill="#5F0B20" width="1.1" height="1.1"/>
	<rect x="8.001" y="58.994" fill="#97737F" width="1.1" height="1.1"/>
	<rect x="7.001" y="58.994" fill="#977481" width="1.1" height="1.1"/>
	<rect x="6.001" y="58.994" fill="#4E3349" width="1.1" height="1.1"/>
	<rect x="5.001" y="58.994" fill="#4E3449" width="1.1" height="1.1"/>
	<rect x="4.001" y="58.994" width="1.1" height="1.1"/>
	<rect x="3.001" y="58.994" width="1.1" height="1.1"/>
	<rect x="2.001" y="58.994" width="1.1" height="1.1"/>
	<rect x="21.001" y="57.994" width="1.1" height="1.1"/>
	<rect x="20.001" y="57.994" fill="#F8E9C0" width="1.1" height="1.1"/>
	<rect x="19.001" y="57.994" fill="#F8E9C0" width="1.1" height="1.1"/>
	<rect x="18.001" y="57.994" fill="#EAD1AB" width="1.1" height="1.1"/>
	<rect x="17.001" y="57.994" width="1.1" height="1.1"/>
	<rect x="16.001" y="57.994" width="1.1" height="1.1"/>
	<rect x="15.001" y="57.994" fill="#1D0F1B" width="1.1" height="1.1"/>
	<rect x="14.001" y="57.994" fill="#1D0F1C" width="1.1" height="1.1"/>
	<rect x="13.001" y="57.994" fill="#1D101C" width="1.1" height="1.1"/>
	<rect x="12.001" y="57.994" fill="#1D101D" width="1.1" height="1.1"/>
	<rect x="11.001" y="57.994" width="1.1" height="1.1"/>
	<rect x="10.001" y="57.994" fill="#85606E" width="1.1" height="1.1"/>
	<rect x="9.001" y="57.994" fill="#5F0B20" width="1.1" height="1.1"/>
	<rect x="8.001" y="57.994" fill="#5F0C21" width="1.1" height="1.1"/>
	<rect x="7.001" y="57.994" width="1.1" height="1.1"/>
	<rect x="6.001" y="57.994" fill="#977482" width="1.1" height="1.1"/>
	<rect x="5.001" y="57.994" fill="#977583" width="1.1" height="1.1"/>
	<rect x="4.001" y="57.994" width="1.1" height="1.1"/>
	<rect x="20.001" y="56.994" width="1.1" height="1.1"/>
	<rect x="19.001" y="56.994" width="1.1" height="1.1"/>
	<rect x="18.001" y="56.994" fill="#EAD1AB" width="1.1" height="1.1"/>
	<rect x="17.001" y="56.994" width="1.1" height="1.1"/>
	<rect x="16.001" y="56.994" width="1.1" height="1.1"/>
	<rect x="15.001" y="56.994" fill="#1D0F1B" width="1.1" height="1.1"/>
	<rect x="14.001" y="56.994" fill="#1D0F1C" width="1.1" height="1.1"/>
	<rect x="13.001" y="56.994" fill="#1D101C" width="1.1" height="1.1"/>
	<rect x="12.001" y="56.994" fill="#1D101D" width="1.1" height="1.1"/>
	<rect x="11.001" y="56.994" width="1.1" height="1.1"/>
	<rect x="10.001" y="56.994" fill="#85606E" width="1.1" height="1.1"/>
	<rect x="9.001" y="56.994" fill="#5F0B20" width="1.1" height="1.1"/>
	<rect x="8.001" y="56.994" fill="#8B0C26" width="1.1" height="1.1"/>
	<rect x="7.001" y="56.994" width="1.1" height="1.1"/>
	<rect x="6.001" y="56.994" width="1.1" height="1.1"/>
	<rect x="5.001" y="56.994" width="1.1" height="1.1"/>
	<rect x="19.001" y="55.994" width="1.1" height="1.1"/>
	<rect x="18.001" y="55.994" fill="#EAD1AB" width="1.1" height="1.1"/>
	<rect x="17.001" y="55.994" width="1.1" height="1.1"/>
	<rect x="16.001" y="55.994" width="1.1" height="1.1"/>
	<rect x="15.001" y="55.994" fill="#E3BAA1" width="1.1" height="1.1"/>
	<rect x="14.001" y="55.994" fill="#1D0F1C" width="1.1" height="1.1"/>
	<rect x="13.001" y="55.994" fill="#1D0F1C" width="1.1" height="1.1"/>
	<rect x="12.001" y="55.994" fill="#E3BDAB" width="1.1" height="1.1"/>
	<rect x="11.001" y="55.994" width="1.1" height="1.1"/>
	<rect x="10.001" y="55.994" fill="#85606E" width="1.1" height="1.1"/>
	<rect x="9.001" y="55.994" fill="#8B0B25" width="1.1" height="1.1"/>
	<rect x="8.001" y="55.994" fill="#8B0C25" width="1.1" height="1.1"/>
	<rect x="7.001" y="55.994" width="1.1" height="1.1"/>
	<rect x="3.001" y="55.994" fill="#17EBFF" width="1.1" height="1.1"/>
	<rect x="2.001" y="55.994" fill="#17EBFF" width="1.1" height="1.1"/>
	<rect x="22.001" y="54.994" fill="#17EBFF" width="1.1" height="1.1"/>
	<rect x="21.001" y="54.994" fill="#17EBFF" width="1.1" height="1.1"/>
	<rect x="19.001" y="54.994" width="1.1" height="1.1"/>
	<rect x="18.001" y="54.994" fill="#EAD1AB" width="1.1" height="1.1"/>
	<rect x="17.001" y="54.994" width="1.1" height="1.1"/>
	<rect x="16.001" y="54.994" width="1.1" height="1.1"/>
	<rect x="15.001" y="54.994" fill="#1D0F1B" width="1.1" height="1.1"/>
	<rect x="14.001" y="54.994" fill="#1D0F1C" width="1.1" height="1.1"/>
	<rect x="13.001" y="54.994" fill="#1D0F1C" width="1.1" height="1.1"/>
	<rect x="12.001" y="54.994" fill="#1D101D" width="1.1" height="1.1"/>
	<rect x="11.001" y="54.994" width="1.1" height="1.1"/>
	<rect x="10.001" y="54.994" fill="#85606D" width="1.1" height="1.1"/>
	<rect x="9.001" y="54.994" fill="#8B0B25" width="1.1" height="1.1"/>
	<rect x="8.001" y="54.994" fill="#8B0C26" width="1.1" height="1.1"/>
	<rect x="7.001" y="54.994" width="1.1" height="1.1"/>
	<rect x="23.001" y="53.994" fill="#17EBFF" width="1.1" height="1.1"/>
	<rect x="19.001" y="53.994" width="1.1" height="1.1"/>
	<rect x="18.001" y="53.994" fill="#EAD1AB" width="1.1" height="1.1"/>
	<rect x="17.001" y="53.994" width="1.1" height="1.1"/>
	<rect x="16.001" y="53.994" width="1.1" height="1.1"/>
	<rect x="15.001" y="53.994" width="1.1" height="1.1"/>
	<rect x="14.001" y="53.994" fill="#1D0F1C" width="1.1" height="1.1"/>
	<rect x="13.001" y="53.994" fill="#1D0F1C" width="1.1" height="1.1"/>
	<rect x="12.001" y="53.994" width="1.1" height="1.1"/>
	<rect x="11.001" y="53.994" width="1.1" height="1.1"/>
	<rect x="10.001" y="53.994" fill="#85606D" width="1.1" height="1.1"/>
	<rect x="9.001" y="53.994" fill="#8B0B25" width="1.1" height="1.1"/>
	<rect x="8.001" y="53.994" fill="#8B0C25" width="1.1" height="1.1"/>
	<rect x="7.001" y="53.994" width="1.1" height="1.1"/>
	<rect x="5.001" y="53.994" fill="#17EBFF" width="1.1" height="1.1"/>
	<rect x="4.001" y="53.994" fill="#17EBFF" width="1.1" height="1.1"/>
	<rect x="19.001" y="52.994" width="1.1" height="1.1"/>
	<rect x="18.001" y="52.994" fill="#DD1C3B" width="1.1" height="1.1"/>
	<rect x="17.001" y="52.994" fill="#EAD1AC" width="1.1" height="1.1"/>
	<rect x="16.001" y="52.994" width="1.1" height="1.1"/>
	<rect x="15.001" y="52.994" width="1.1" height="1.1"/>
	<rect x="14.001" y="52.994" width="1.1" height="1.1"/>
	<rect x="13.001" y="52.994" width="1.1" height="1.1"/>
	<rect x="12.001" y="52.994" width="1.1" height="1.1"/>
	<rect x="11.001" y="52.994" fill="#855F6B" width="1.1" height="1.1"/>
	<rect x="10.001" y="52.994" fill="#8B0B24" width="1.1" height="1.1"/>
	<rect x="9.001" y="52.994" fill="#8B0B25" width="1.1" height="1.1"/>
	<rect x="8.001" y="52.994" fill="#9C001A" width="1.1" height="1.1"/>
	<rect x="7.001" y="52.994" width="1.1" height="1.1"/>
	<rect x="3.001" y="52.994" fill="#17EBFF" width="1.1" height="1.1"/>
	<rect x="2.001" y="52.994" fill="#17EBFF" width="1.1" height="1.1"/>
	<rect x="21.001" y="51.994" fill="#17EBFF" width="1.1" height="1.1"/>
	<rect x="19.001" y="51.994" width="1.1" height="1.1"/>
	<rect x="18.001" y="51.994" fill="#DD1C3B" width="1.1" height="1.1"/>
	<rect x="17.001" y="51.994" fill="#DD1C3B" width="1.1" height="1.1"/>
	<rect x="16.001" y="51.994" fill="#EAD1AD" width="1.1" height="1.1"/>
	<rect x="15.001" y="51.994" width="1.1" height="1.1"/>
	<rect x="14.001" y="51.994" width="1.1" height="1.1"/>
	<rect x="13.001" y="51.994" fill="#BF9D8F" width="1.1" height="1.1"/>
	<rect x="12.001" y="51.994" fill="#855D68" width="1.1" height="1.1"/>
	<rect x="11.001" y="51.994" fill="#8B0B23" width="1.1" height="1.1"/>
	<rect x="10.001" y="51.994" fill="#9C0019" width="1.1" height="1.1"/>
	<rect x="9.001" y="51.994" fill="#9C001A" width="1.1" height="1.1"/>
	<rect x="8.001" y="51.994" width="1.1" height="1.1"/>
	<rect x="22.001" y="50.994" fill="#17EBFF" width="1.1" height="1.1"/>
	<rect x="18.001" y="50.994" width="1.1" height="1.1"/>
	<rect x="17.001" y="50.994" fill="#DD1C3B" width="1.1" height="1.1"/>
	<rect x="16.001" y="50.994" fill="#9C0016" width="1.1" height="1.1"/>
	<rect x="15.001" y="50.994" fill="#EAD2AF" width="1.1" height="1.1"/>
	<rect x="14.001" y="50.994" fill="#BF9C8C" width="1.1" height="1.1"/>
	<rect x="13.001" y="50.994" fill="#9C0017" width="1.1" height="1.1"/>
	<rect x="12.001" y="50.994" fill="#9C0018" width="1.1" height="1.1"/>
	<rect x="11.001" y="50.994" fill="#9C0018" width="1.1" height="1.1"/>
	<rect x="10.001" y="50.994" fill="#9C0019" width="1.1" height="1.1"/>
	<rect x="9.001" y="50.994" width="1.1" height="1.1"/>
	<rect x="6.001" y="50.994" fill="#17EBFF" width="1.1" height="1.1"/>
	<rect x="17.001" y="49.994" width="1.1" height="1.1"/>
	<rect x="16.001" y="49.994" fill="#DD1C3B" width="1.1" height="1.1"/>
	<rect x="15.001" y="49.994" fill="#DD1D3C" width="1.1" height="1.1"/>
	<rect x="14.001" y="49.994" fill="#9C0017" width="1.1" height="1.1"/>
	<rect x="13.001" y="49.994" fill="#9C0017" width="1.1" height="1.1"/>
	<rect x="12.001" y="49.994" fill="#9C0018" width="1.1" height="1.1"/>
	<rect x="11.001" y="49.994" fill="#9C0019" width="1.1" height="1.1"/>
	<rect x="10.001" y="49.994" width="1.1" height="1.1"/>
	<rect x="5.001" y="49.994" fill="#17EBFF" width="1.1" height="1.1"/>
	<rect x="16.001" y="48.994" width="1.1" height="1.1"/>
	<rect x="15.001" y="48.994" fill="#DD1D3D" width="1.1" height="1.1"/>
	<rect x="14.001" y="48.994" fill="#DD1E3E" width="1.1" height="1.1"/>
	<rect x="13.001" y="48.994" fill="#9C0018" width="1.1" height="1.1"/>
	<rect x="12.001" y="48.994" width="1.1" height="1.1"/>
	<rect x="11.001" y="48.994" width="1.1" height="1.1"/>
	<rect x="15.001" y="47.994" width="1.1" height="1.1"/>
	<rect x="14.001" y="47.994" width="1.1" height="1.1"/>
	<rect x="13.001" y="47.994" width="1.1" height="1.1"/>
</g>
</svg>
