<?xml version="1.0" encoding="utf-8"?>
<!-- Generator: Adobe Illustrator 15.0.0, SVG Export Plug-In  -->
<!DOCTYPE svg PUBLIC "-//W3C//DTD SVG 1.1//EN" "http://www.w3.org/Graphics/SVG/1.1/DTD/svg11.dtd" [
	<!ENTITY ns_flows "http://ns.adobe.com/Flows/1.0/">
]>
<svg version="1.1"
	 xmlns="http://www.w3.org/2000/svg" xmlns:xlink="http://www.w3.org/1999/xlink" xmlns:a="http://ns.adobe.com/AdobeSVGViewerExtensions/3.0/"
	 x="0px" y="0px" width="422px" height="303px" viewBox="-0.567 -0.583 422 303" enable-background="new -0.567 -0.583 422 303"
	 xml:space="preserve">
<defs>
	<symbol  id="body" viewBox="-97.281 -104.655 195.446 209.802">
		<g id="Calque_3_1_">
			<path fill-rule="evenodd" clip-rule="evenodd" fill="#332A66" d="M95.1,9.35c0.467-2.633,0.85-5.267,1.15-7.9
				c0.2-1.767,0.367-3.517,0.5-5.25c1.667-20.534-1.15-38.7-8.45-54.5c-1.233-2.633-2.583-5.2-4.05-7.7
				C73.217-84.767,56-96.483,32.6-101.15c-7.867-1.567-16.317-2.5-25.35-2.8c-13.533-0.466-26.017,0.617-37.45,3.25
				c-19.066,4.4-35.583,14.617-49.55,30.65c-4.1,4.733-7.483,10.083-10.15,16.05c-5.4,12.2-7.817,27-7.25,44.4
				c0.1,3.167,0.3,6.4,0.6,9.7c0.066,0.733,0.133,1.45,0.2,2.15c0,0.1,0.017,0.217,0.05,0.35c3.033,29.533,13.017,52.25,29.95,68.15
				c17.367,16.333,38.083,27.167,62.15,32.5c24.034,5.367,46.017-3.7,65.95-27.2C79.683,54.917,90.8,32.683,95.1,9.35z"/>
		</g>
		<g id="Calque_1_2_">
			<path fill-rule="evenodd" clip-rule="evenodd" fill="#33518E" d="M63.35,0.9C75.407-3.84,85.824-10.34,94.6-18.6
				c-2.395-17.735-8.494-32.077-18.3-43.025c-4.272-0.031-8.539,1.044-12.8,3.225c-9,4.133-14.867,12.6-17.6,25.4
				c-1.667,11.133,1.017,20.3,8.05,27.5C56.618-2.989,59.751-0.856,63.35,0.9z M-72.625-62.6C-83.062-52.28-89.987-38.847-93.4-22.3
				C-83.082-12.127-70.407-4.319-55.375,1.125c0.848-0.359,1.689-0.75,2.525-1.175c9.067-3.467,14.217-11.3,15.45-23.5
				c0.867-8.934-1.1-17.267-5.9-25c-6.067-8.867-15.167-13.583-27.3-14.15C-71.282-62.694-71.957-62.661-72.625-62.6z"/>
			<path fill-rule="evenodd" clip-rule="evenodd" fill="#231D48" d="M76.3-61.625c4.145,0.031,8.294,1.106,12.45,3.225
				c-1.233-2.633-2.583-5.2-4.05-7.7c-11.034-18.767-28.25-30.483-51.65-35.15c8.464,1.946,13.289,8.796,14.475,20.55
				C59.255-76.3,68.847-69.941,76.3-61.625z M-89.45-54.1c4.747-5.14,10.355-7.973,16.825-8.5
				c8.137-8.048,18.404-14.207,30.8-18.475c1.227-7.823,5.252-14.398,12.075-19.725c-19.067,4.4-35.583,14.617-49.55,30.65
				C-83.4-65.417-86.783-60.067-89.45-54.1z"/>
			<path fill-rule="evenodd" clip-rule="evenodd" fill="#2A4274" d="M-96.7-9.7c0.409,0.622,0.834,1.222,1.275,1.8
				c3.879,5.129,8.904,8.563,15.075,10.3c8.997,2.339,17.322,1.914,24.975-1.275C-70.407-4.319-83.082-12.127-93.4-22.3
				c3.413-16.547,10.338-29.98,20.775-40.3c-6.47,0.527-12.078,3.36-16.825,8.5C-94.85-41.9-97.267-27.1-96.7-9.7z M97.2-3.9
				c1.667-20.533-1.15-38.7-8.45-54.5c-4.156-2.119-8.306-3.194-12.45-3.225c9.806,10.948,15.906,25.29,18.3,43.025
				C85.824-10.34,75.407-3.84,63.35,0.9c4.817,2.356,10.467,4.04,16.95,5.05c6.63,0.938,11.789-1.495,15.475-7.3
				C96.277-2.135,96.752-2.985,97.2-3.9z M-29.75-100.8c-6.823,5.327-10.848,11.902-12.075,19.725
				C-30.199-85.079-16.69-87.42-1.3-88.1c19.089-0.11,35.364,2.356,48.825,7.4c-1.187-11.753-6.011-18.604-14.475-20.55
				c-7.867-1.567-16.316-2.5-25.35-2.8C-5.833-104.517-18.317-103.433-29.75-100.8z"/>
			<linearGradient id="SVGID_1_" gradientUnits="userSpaceOnUse" x1="0.25" y1="86.6499" x2="0.25" y2="8.2499">
				<stop  offset="0" style="stop-color:#15112C"/>
				<stop  offset="1" style="stop-color:#231D48"/>
			</linearGradient>
			<path fill-rule="evenodd" clip-rule="evenodd" fill="url(#SVGID_1_)" d="M63.35,0.9C45.831,7.8,24.848,10.983,0.4,10.45
				c-21.245-0.446-39.836-3.555-55.775-9.325C-63.028,4.314-71.353,4.739-80.35,2.4c-6.17-1.737-11.195-5.17-15.075-10.3
				c-0.441-0.578-0.866-1.178-1.275-1.8c0.1,3.167,0.3,6.4,0.6,9.7c0.064,0.721,0.131,1.438,0.2,2.15
				c0.012,0.116,0.02,0.232,0.025,0.35c3.057,29.545,13.049,52.262,29.975,68.15c17.367,16.333,38.083,27.167,62.15,32.5
				c24.033,5.367,46.017-3.7,65.95-27.2c17.921-21.128,29.029-43.361,33.325-66.7c0.474-2.619,0.866-5.252,1.175-7.9
				c0.2-1.767,0.367-3.517,0.5-5.25c-0.448,0.915-0.923,1.765-1.425,2.55C92.088,4.456,86.93,6.889,80.3,5.95
				C73.817,4.939,68.167,3.256,63.35,0.9z"/>
			
				<radialGradient id="SVGID_2_" cx="2.25" cy="-43.1499" r="66.9" gradientTransform="matrix(1 0 0 0.997 0 -0.1289)" gradientUnits="userSpaceOnUse">
				<stop  offset="0" style="stop-color:#4B337B"/>
				<stop  offset="1" style="stop-color:#332A66"/>
			</radialGradient>
			<path fill-rule="evenodd" clip-rule="evenodd" fill="url(#SVGID_2_)" d="M-41.825-81.075
				c-12.396,4.269-22.663,10.427-30.8,18.475c0.668-0.061,1.343-0.094,2.025-0.1c12.133,0.567,21.233,5.284,27.3,14.15
				c4.8,7.733,6.767,16.066,5.9,25c-1.233,12.2-6.383,20.033-15.45,23.5c-0.836,0.424-1.677,0.816-2.525,1.175
				c15.938,5.771,34.53,8.879,55.775,9.325C24.848,10.983,45.831,7.8,63.35,0.9c-3.599-1.756-6.732-3.889-9.4-6.4
				c-7.034-7.2-9.717-16.367-8.05-27.5c2.733-12.8,8.6-21.267,17.6-25.4c4.261-2.181,8.527-3.256,12.8-3.225
				C68.847-69.941,59.255-76.3,47.525-80.7c0.153,1.535,0.244,3.151,0.275,4.85c-1.1,12.167-7.017,20.967-17.75,26.4
				c-10.767,5.434-21.267,8-31.5,7.7c-10.233-0.3-18.383-2.433-24.45-6.4c-12.333-7.6-17.75-17.667-16.25-30.2
				C-42.082-79.273-41.974-80.182-41.825-81.075z"/>
			<radialGradient id="SVGID_3_" cx="0.3501" cy="-52.5498" r="48.2" gradientUnits="userSpaceOnUse">
				<stop  offset="0" style="stop-color:#535DD7"/>
				<stop  offset="1" style="stop-color:#33518E"/>
			</radialGradient>
			<path fill-rule="evenodd" clip-rule="evenodd" fill="url(#SVGID_3_)" d="M47.525-80.7C34.064-85.744,17.79-88.21-1.3-88.1
				c-15.391,0.68-28.899,3.021-40.525,7.025c-0.148,0.894-0.257,1.802-0.325,2.725c-1.5,12.533,3.917,22.6,16.25,30.2
				c6.066,3.967,14.217,6.1,24.45,6.4c10.233,0.3,20.733-2.267,31.5-7.7c10.733-5.433,16.65-14.233,17.75-26.4
				C47.769-77.549,47.678-79.166,47.525-80.7z"/>
			
				<path fill-rule="evenodd" clip-rule="evenodd" fill="none" stroke="#33518E" stroke-linecap="round" stroke-linejoin="round" stroke-miterlimit="3" d="
				M76.3-61.625c-4.272-0.031-8.539,1.044-12.8,3.225c-9,4.133-14.867,12.6-17.6,25.4c-1.667,11.133,1.017,20.3,8.05,27.5
				c2.667,2.511,5.801,4.644,9.4,6.4 M-72.625-62.6c0.668-0.061,1.343-0.094,2.025-0.1c12.133,0.567,21.233,5.284,27.3,14.15
				c4.8,7.733,6.767,16.066,5.9,25c-1.233,12.2-6.383,20.033-15.45,23.5c-0.836,0.424-1.677,0.816-2.525,1.175"/>
			
				<path fill-rule="evenodd" clip-rule="evenodd" fill="none" stroke="#2A4274" stroke-linecap="round" stroke-linejoin="round" stroke-miterlimit="3" d="
				M63.35,0.9c4.817,2.356,10.467,4.04,16.95,5.05c6.63,0.938,11.789-1.495,15.475-7.3c0.502-0.785,0.978-1.635,1.425-2.55
				 M-96.7-9.7c0.409,0.622,0.834,1.222,1.275,1.8c3.879,5.129,8.904,8.563,15.075,10.3c8.997,2.339,17.322,1.914,24.975-1.275
				C-70.407-4.319-83.082-12.127-93.4-22.3c3.413-16.547,10.338-29.98,20.775-40.3 M76.3-61.625
				c9.806,10.948,15.906,25.29,18.3,43.025C85.824-10.34,75.407-3.84,63.35,0.9 M88.75-58.4c-4.156-2.119-8.306-3.194-12.45-3.225
				 M-41.825-81.075C-30.199-85.079-16.69-87.42-1.3-88.1c19.089-0.11,35.364,2.356,48.825,7.4 M-89.45-54.1
				c4.747-5.14,10.355-7.973,16.825-8.5"/>
			
				<path fill-rule="evenodd" clip-rule="evenodd" fill="none" stroke="#382B6A" stroke-linecap="round" stroke-linejoin="round" stroke-miterlimit="3" d="
				M-55.375,1.125c15.938,5.771,34.53,8.879,55.775,9.325C24.848,10.983,45.831,7.8,63.35,0.9"/>
			
				<path fill-rule="evenodd" clip-rule="evenodd" fill="none" stroke="#1A1535" stroke-linecap="round" stroke-linejoin="round" stroke-miterlimit="3" d="
				M97.2-3.9c-0.133,1.733-0.3,3.483-0.5,5.25c-0.31,2.648-0.701,5.281-1.175,7.9C91.229,32.589,80.122,54.822,62.2,75.95
				c-19.934,23.5-41.917,32.566-65.95,27.2c-24.067-5.333-44.783-16.167-62.15-32.5C-82.826,54.762-92.818,32.045-95.875,2.5
				c-0.005-0.118-0.013-0.234-0.025-0.35c-0.069-0.712-0.136-1.429-0.2-2.15c-0.3-3.3-0.5-6.533-0.6-9.7 M88.75-58.4
				c-1.233-2.633-2.583-5.2-4.05-7.7c-11.034-18.767-28.25-30.483-51.65-35.15c-7.867-1.567-16.316-2.5-25.35-2.8
				c-13.534-0.467-26.017,0.617-37.45,3.25c-19.067,4.4-35.583,14.617-49.55,30.65c-4.1,4.733-7.483,10.083-10.15,16.05
				c-5.4,12.2-7.816,27-7.25,44.4 M97.2-3.9c1.667-20.533-1.15-38.7-8.45-54.5"/>
			
				<path fill-rule="evenodd" clip-rule="evenodd" fill="none" stroke="#231D48" stroke-width="0.1" stroke-linecap="round" stroke-linejoin="round" stroke-miterlimit="3" d="
				M47.525-80.7c11.73,4.4,21.322,10.759,28.775,19.075 M-72.625-62.6c8.137-8.048,18.404-14.207,30.8-18.475"/>
			
				<path fill-rule="evenodd" clip-rule="evenodd" fill="none" stroke="#33518E" stroke-width="0.1" stroke-linecap="round" stroke-linejoin="round" stroke-miterlimit="3" d="
				M-41.825-81.075c-0.148,0.894-0.257,1.802-0.325,2.725c-1.5,12.533,3.917,22.6,16.25,30.2c6.066,3.967,14.217,6.1,24.45,6.4
				c10.233,0.3,20.733-2.267,31.5-7.7c10.733-5.433,16.65-14.233,17.75-26.4c-0.031-1.699-0.122-3.315-0.275-4.85"/>
			
				<path fill-rule="evenodd" clip-rule="evenodd" fill="none" stroke="#2A4274" stroke-width="0.1" stroke-linecap="round" stroke-linejoin="round" stroke-miterlimit="3" d="
				M47.525-80.7c-1.187-11.753-6.011-18.604-14.475-20.55 M-29.75-100.8c-6.823,5.327-10.848,11.902-12.075,19.725"/>
		</g>
		<g id="Calque_2_2_">
			<path fill-rule="evenodd" clip-rule="evenodd" fill="#FFFFFF" d="M22.65,15.9c1.733,0,3.217-0.967,4.45-2.9s1.85-4.267,1.85-7
				s-0.617-5.067-1.85-7s-2.717-2.9-4.45-2.9S19.433-2.933,18.2-1c-1.233,1.933-1.85,4.267-1.85,7s0.617,5.067,1.85,7
				C19.433,14.933,20.917,15.9,22.65,15.9z M-23.5,12.45c1.3,1.966,2.85,2.95,4.65,2.95c1.8,0,3.333-0.983,4.6-2.95
				c1.3-2,1.95-4.4,1.95-7.2s-0.65-5.183-1.95-7.15c-1.267-2-2.8-3-4.6-3c-1.8,0-3.35,1-4.65,3c-1.267,1.967-1.9,4.35-1.9,7.15
				S-24.767,10.45-23.5,12.45z"/>
			<linearGradient id="SVGID_4_" gradientUnits="userSpaceOnUse" x1="1.9004" y1="-15.75" x2="1.9004" y2="-24.8501">
				<stop  offset="0" style="stop-color:#692E61"/>
				<stop  offset="1" style="stop-color:#AA80A1"/>
			</linearGradient>
			<path fill-rule="evenodd" clip-rule="evenodd" fill="url(#SVGID_4_)" d="M5.1-17.05c0.9-0.9,1.35-1.983,1.35-3.25
				c0-1.267-0.45-2.333-1.35-3.2c-0.867-0.9-1.934-1.35-3.2-1.35s-2.35,0.45-3.25,1.35c-0.867,0.867-1.3,1.933-1.3,3.2
				c0,1.267,0.433,2.35,1.3,3.25c0.9,0.867,1.983,1.3,3.25,1.3S4.233-16.183,5.1-17.05z"/>
			
				<path fill-rule="evenodd" clip-rule="evenodd" fill="none" stroke="#433074" stroke-linecap="round" stroke-linejoin="round" stroke-miterlimit="3" d="
				M5.1-17.05c0.9-0.9,1.35-1.983,1.35-3.25c0-1.267-0.45-2.333-1.35-3.2c-0.867-0.9-1.934-1.35-3.2-1.35s-2.35,0.45-3.25,1.35
				c-0.867,0.867-1.3,1.933-1.3,3.2c0,1.267,0.433,2.35,1.3,3.25c0.9,0.867,1.983,1.3,3.25,1.3S4.233-16.183,5.1-17.05z"/>
			
				<path fill-rule="evenodd" clip-rule="evenodd" fill="none" stroke="#FFFFFF" stroke-linecap="round" stroke-linejoin="round" stroke-miterlimit="3" d="
				M22.65,15.9c1.733,0,3.217-0.967,4.45-2.9s1.85-4.267,1.85-7s-0.617-5.067-1.85-7s-2.717-2.9-4.45-2.9S19.433-2.933,18.2-1
				c-1.233,1.933-1.85,4.267-1.85,7s0.617,5.067,1.85,7C19.433,14.933,20.917,15.9,22.65,15.9z M-23.5,12.45
				c1.3,1.966,2.85,2.95,4.65,2.95c1.8,0,3.333-0.983,4.6-2.95c1.3-2,1.95-4.4,1.95-7.2s-0.65-5.183-1.95-7.15c-1.267-2-2.8-3-4.6-3
				c-1.8,0-3.35,1-4.65,3c-1.267,1.967-1.9,4.35-1.9,7.15S-24.767,10.45-23.5,12.45z"/>
		</g>
		<g id="Dossier_1_1_">
		</g>
	</symbol>
	<symbol  id="leafs" viewBox="-203.383 -146.95 421.158 297.917">
		<g id="Calque_3_2_">
			<path fill-rule="evenodd" clip-rule="evenodd" fill="#447612" d="M139.2,110.05c11.133-4.433,16.183-7.767,15.15-10
				c0.133-3.6-5.934-5.917-18.2-6.95c-16.033-0.9-28.167-2.083-36.4-3.55c-3.833-0.367-7.083-1.4-9.75-3.1
				c-2.967-1.667-1.95-2.517,3.05-2.55c12.434-1.566,23.034-4.65,31.8-9.25c1.5-0.8,2.983-1.6,4.45-2.4
				c18.733-10.4,33.333-22.233,43.8-35.5c11.267-14.3,24.75-36.833,40.45-67.6c4.3-8.833,4.3-13.617,0-14.35
				c-2.566-0.933-6.167,1.55-10.8,7.45c-18.033,24.4-37.033,41.933-57,52.6c-14.533,8.066-29.083,14.4-43.65,19
				C90.867,37.017,79.083,42.5,66.75,50.3c6.267-4.767,14.45-10.167,24.55-16.2c5.8-3.467,12.25-7.15,19.35-11.05
				c18.7-10.433,35.533-30.6,50.5-60.5c1.567-4.433,3.033-9.1,4.4-14c5.434-19.867,8.967-43.7,10.6-71.5
				c-0.167-12.133-2.833-18.633-8-19.5c-4.267-0.533-9.1,2.967-14.5,10.5l-33,49.5c-13.6,17.034-28.6,30.367-45,40
				C64.617-34.083,54.9-24.933,46.5-15C39-6.1,32.55,3.417,27.15,13.55l-12,23c-1.933,1.8-3.767,2.5-5.5,2.1
				c-2.367,1.067-4.533,0.367-6.5-2.1c-1.933-5.566-4.2-11.25-6.8-17.05C-9.217,7.133-16.283-5.683-24.85-18.95
				c-15.066-22.7-49.233-61.367-102.5-116c-9.433-6.733-18.267-10.4-26.5-11c-5.833,0.2-11,3.7-15.5,10.5
				c-3.867,12.967,0.967,34.633,14.5,65c1.5,3.267,3.083,6.5,4.75,9.7C-132.933-27.717-106.9,2.633-72,30.3
				c6.267,4.967,12.8,9.833,19.6,14.6c4.566,2.3,5.25,3.517,2.05,3.65c-4.933-2.066-10-4.4-15.2-7
				c-12.133-5.966-25.067-13.3-38.8-22c-35.833-18.367-61.333-34.033-76.5-47c-6.6-6.667-11.933-9.5-16-8.5
				c-4.833,4.367-6.5,9.367-5,15c5.967,19.967,19.3,39.467,40,58.5c18.833,15.167,40.083,26.567,63.75,34.2
				c9.434,3.067,19.25,5.517,29.45,7.35c6.867,0.767,11.5,1.033,13.9,0.8c-7.133,5.067-19.083,10.083-35.85,15.05
				c-9.267,3.1-20.367,5.233-33.3,6.4c-8.5,1.4-11.967,3.8-10.4,7.2c1.8,3.967,8.167,7.717,19.1,11.25
				c21.7,5.7,42.85,6.983,63.45,3.85c9.033-1.367,17.95-3.583,26.75-6.65c6.067-2.767,10.833-5.85,14.3-9.25
				c2-1.933,2.95-1.933,2.85,0c-2.933,4.767-3.783,8.7-2.55,11.8c1.467,3.934,3.417,7.784,5.85,11.55
				c3.4,5.267,7.767,10.383,13.1,15.35c4.2,4.367,8.417,4.667,12.65,0.9c4.533-4.033,8.5-8.9,11.9-14.6
				c0.633-1.033,1.233-2.1,1.8-3.2c2.1-7.466,2.033-14.45-0.2-20.95h1.6c4.733,5.233,10.034,8.85,15.9,10.85
				c5.433,2.133,14.066,3.333,25.9,3.6c4.9-0.3,9.55-0.683,13.95-1.15C113.717,119.667,129.433,115.717,139.2,110.05z"/>
		</g>
		<g id="Calque_4_1_">
			<path fill-rule="evenodd" clip-rule="evenodd" fill="#B5CD61" d="M117.05,109.6c4.867-1.167,8.184-2.4,9.95-3.7
				c3.733-1.833,2.533-2.883-3.6-3.15l-23.75-2.65c-18.433-2.867-31.2-6.35-38.3-10.45c-3.067-1.4-5.267-3.267-6.6-5.6
				c-1.233-2.5,0.283-3.617,4.55-3.35c13.4-1.867,26.35-5.583,38.85-11.15c11.8-4.966,22.4-10.083,31.8-15.35
				c12.466-6.934,22.85-14.117,31.15-21.55c11.633-12.3,18.283-21.733,19.95-28.3L148.3,28.5c-11.167,6.9-21.433,12.567-30.8,17
				c-10.767,5.1-20.35,8.6-28.75,10.5L63.8,63.25c-11.533,3.3-18.3,2.767-20.3-1.6c-0.133-2.267,0.633-4.783,2.3-7.55
				c5.333-6.267,16.1-15.233,32.3-26.9c1.9-1.367,3.867-2.767,5.9-4.2c19.467-13.733,34.367-29.983,44.7-48.75
				c10.566-18.5,17.466-34.967,20.7-49.4c-0.233-6.367-2.867-6.367-7.9,0c-14.067,19.967-28.633,35.167-43.7,45.6
				c-19.267,14.867-35.35,30.2-48.25,46L27.35,45.1c-5.8,6.566-12.083,8.95-18.85,7.15C0.433,50.317-5.85,46.167-10.35,39.8
				c-5.867-7.433-12.05-14.917-18.55-22.45c-10-11.6-20.767-23.333-32.3-35.2C-76.867-35.883-99.6-59.5-129.4-88.7
				c-5.467-4.533-7.617-2.9-6.45,4.9c4.967,27.966,22.184,56.617,51.65,85.95l38.8,33.5l12.7,15.15c5.467,7,5.467,10.367,0,10.1
				h-11.8c-15.433-2.7-30.933-7.117-46.5-13.25c-9.6-3.767-19.217-8.183-28.85-13.25c-15.4-8.2-32.8-19.9-52.2-35.1
				c-2.267,0.6,1.1,5.733,10.1,15.4c15.767,16.1,36.633,31.1,62.6,45c0.2,0.1,0.417,0.2,0.65,0.3
				c17.067,7.667,36.467,13.6,58.2,17.8c3.4,0.833,4.433,2.667,3.1,5.5c-5.1,5.934-10.217,10.983-15.35,15.15
				c-9.9,6.267-21.483,10.066-34.75,11.4c-3.433,0.367-6.967,0.566-10.6,0.6c-6.167,0.7-4.65,1.9,4.55,3.6
				c4.466,0.534,9.05,0.883,13.75,1.05c8.867,0.333,18.117-0.017,27.75-1.05c12.7-3,23.267-7.25,31.7-12.75l11-3.65
				c4.467,0.033,6.667,1.833,6.6,5.4c-0.8,7.633-0.65,13.1,0.45,16.4c0.1,3.167,3.333,8.333,9.7,15.5c1.333,1.5,2.8,3.083,4.4,4.75
				c1.467,1.566,3.067,1.25,4.8-0.95c0.767-0.933,1.517-1.95,2.25-3.05c2.8-4.167,5.167-9.383,7.1-15.65
				c0.966-4.667,0.966-9.316,0-13.95c-0.167-4.934,1.117-7.567,3.85-7.9c3.267-1.467,5.517-1.467,6.75,0
				c5.8,5.4,12.833,9.566,21.1,12.5c8.3,2.9,19.983,3.933,35.05,3.1C103.067,112.467,111.183,111.067,117.05,109.6z M10.25,73.65
				c4.167,0,7.717,0.6,10.65,1.8c2.967,1.2,4.45,2.65,4.45,4.35c0,1.7-1.483,3.15-4.45,4.35c-2.933,1.2-6.483,1.8-10.65,1.8
				s-7.733-0.6-10.7-1.8c-2.933-1.2-4.4-2.65-4.4-4.35c0-1.7,1.467-3.15,4.4-4.35C2.517,74.25,6.083,73.65,10.25,73.65z"/>
		</g>
		<g id="Calque_1_3_">
			<path fill-rule="evenodd" clip-rule="evenodd" fill="#447612" d="M90,86.45c-5.7-1.034-8.567-0.15-8.6,2.65
				c7.567,4.867,20.684,7.867,39.35,9c0.441,1.496,0.558,2.963,0.35,4.4l2.3,0.25c6.133,0.267,7.333,1.317,3.6,3.15
				c-1.782,1.284-5.107,2.526-9.975,3.725c-4.57,4.466-12.903,8.558-25,12.275c21.695-2.219,37.42-6.168,47.175-11.85
				c11.133-4.433,16.183-7.767,15.15-10c0.133-3.6-5.934-5.917-18.2-6.95c-16.033-0.9-28.167-2.083-36.4-3.55
				C95.917,89.183,92.667,88.15,90,86.45z M7.4,134.95c-3.98-0.77-7.964-2.053-11.95-3.85c3.416,5.265,7.782,10.382,13.1,15.35
				c4.2,4.367,8.417,4.667,12.65,0.9c4.539-4.032,8.506-8.898,11.9-14.6c-4.752,1.731-9.511,2.723-14.275,2.975
				c-0.71,1.08-1.452,2.088-2.225,3.025c-1.733,2.2-3.333,2.517-4.8,0.95C10.197,138.027,8.73,136.444,7.4,134.95z M117.5,45.5
				c9.371-4.45,19.638-10.117,30.8-17l32.75-24.15c-1.667,6.566-8.316,16-19.95,28.3c-8.313,7.421-18.697,14.604-31.15,21.55
				c5.581,5.938,5.364,11.954-0.65,18.05c18.747-10.399,33.347-22.232,43.8-35.5c11.267-14.3,24.75-36.833,40.45-67.6
				c4.3-8.833,4.3-13.617,0-14.35c-2.566-0.933-6.167,1.55-10.8,7.45c-18.033,24.4-37.033,41.933-57,52.6
				c-14.533,8.066-29.083,14.4-43.65,19C90.867,37.017,79.083,42.5,66.75,50.3c-3.2,2.4-5.9,4.65-8.1,6.75
				c17.567-9.267,32.684-15.1,45.35-17.5C109.171,41.522,113.671,43.505,117.5,45.5z M165.525-51.45
				c5.117-34.633,5.125-52.433,0.025-53.4c-5.133-0.9-9.25,0.2-12.35,3.3c-4.9,4.566-11.117,11.066-18.65,19.5
				c-10.066,11.267-18.816,19.267-26.25,24C86.267-44.483,65.667-30.133,46.5-15C38.996-6.114,32.546,3.403,27.15,13.55l-6,11.5
				c3.267-3.267,6.733-5.233,10.4-5.9c5.308,0.196,10.341,0.546,15.1,1.05l2.9-3.75c12.9-15.8,28.983-31.133,48.25-46
				c15.067-10.434,29.633-25.633,43.7-45.6c5.033-6.367,7.667-6.367,7.9,0c-3.233,14.433-10.133,30.9-20.7,49.4
				C118.367-6.983,103.467,9.267,84,23c-2.041,1.438-4.007,2.837-5.9,4.2c5.008,1.953,9.399,4.261,13.175,6.925
				c5.822-3.476,12.28-7.167,19.375-11.075c18.7-10.433,35.533-30.6,50.5-60.5C162.728-41.872,164.186-46.539,165.525-51.45z
				 M-24.85-18.95C-44.583-39.317-68.4-61.633-96.3-85.9c-27.9-24.267-45.667-36.033-53.3-35.3c-7.6,0.767-11.316,6-11.15,15.7
				c0.133,9.7,3.683,24.617,10.65,44.75C-132.939-27.73-106.905,2.62-72,30.3c4.514-2.032,9.181-3.874,14-5.525L-84.2,2.15
				c-29.466-29.333-46.683-57.983-51.65-85.95c-1.167-7.8,0.983-9.434,6.45-4.9c29.8,29.2,52.533,52.817,68.2,70.85
				C-49.664-5.971-38.897,5.771-28.9,17.375c5.591-0.98,11.341-1.755,17.25-2.325l8,4.475C-9.208,7.135-16.275-5.69-24.85-18.95z
				 M-91.025,47.675c2.429-2.572,5.388-5.163,8.875-7.775l16.575,1.675c-12.116-5.978-25.041-13.319-38.775-22.025
				c-35.833-18.367-61.333-34.033-76.5-47c-6.6-6.667-11.933-9.5-16-8.5c-4.833,4.367-6.5,9.367-5,15
				c5.967,19.967,19.3,39.467,40,58.5c18.828,15.182,40.078,26.59,63.75,34.225c-1.552-3.878-1.752-7.803-0.6-11.775
				c-0.219-0.103-0.436-0.203-0.65-0.3c-25.967-13.9-46.833-28.9-62.6-45c-9-9.667-12.367-14.8-10.1-15.4
				c19.4,15.2,36.8,26.9,52.2,35.1C-110.211,39.473-100.603,43.898-91.025,47.675z M-87.5,109.875
				c-1.891-1.735-3.341-3.593-4.35-5.575c6.1-0.133,21.267-6.283,45.5-18.45c1.767-1.5-1.033-3.483-8.4-5.95
				c-7.133,5.067-19.083,10.083-35.85,15.05c-9.267,3.1-20.367,5.233-33.3,6.4c-8.5,1.4-11.967,3.8-10.4,7.2
				c1.8,3.967,8.167,7.717,19.1,11.25c21.699,5.703,42.849,6.986,63.45,3.85c-11.889-2.142-21.239-4.983-28.05-8.525
				c-4.695-0.175-9.278-0.533-13.75-1.075c-9.2-1.7-10.717-2.9-4.55-3.6C-94.458,110.423-90.925,110.231-87.5,109.875z"/>
			<path fill-rule="evenodd" clip-rule="evenodd" fill="#355D0E" d="M46.5-15c19.167-15.133,39.767-29.483,61.8-43.05
				c7.434-4.733,16.184-12.733,26.25-24c7.534-8.434,13.75-14.934,18.65-19.5c3.1-3.1,7.216-4.2,12.35-3.3
				c5.1,0.967,5.092,18.767-0.025,53.4c5.453-19.864,8.994-43.697,10.625-71.5c-0.167-12.133-2.833-18.633-8-19.5
				c-4.267-0.533-9.1,2.967-14.5,10.5l-33,49.5c-13.6,17.034-28.6,30.367-45,40C64.614-34.089,54.897-24.939,46.5-15z M-150.1-60.75
				c-6.967-20.133-10.517-35.05-10.65-44.75c-0.167-9.7,3.55-14.933,11.15-15.7c7.633-0.733,25.4,11.034,53.3,35.3
				c27.9,24.267,51.716,46.583,71.45,66.95c-15.066-22.7-49.233-61.367-102.5-116c-9.433-6.733-18.267-10.4-26.5-11
				c-5.833,0.2-11,3.7-15.5,10.5c-3.867,12.967,0.967,34.633,14.5,65C-153.35-67.192-151.767-63.958-150.1-60.75z"/>
			<path fill-rule="evenodd" clip-rule="evenodd" fill="#5D8718" d="M18.825,135.725c4.764-0.252,9.522-1.244,14.275-2.975
				c0.619-1.039,1.219-2.105,1.8-3.2c2.1-7.466,2.033-14.45-0.2-20.95h1.6c4.733,5.233,10.034,8.85,15.9,10.85
				c5.433,2.133,14.066,3.333,25.9,3.6c4.889-0.309,9.53-0.692,13.925-1.15c12.097-3.717,20.43-7.809,25-12.275
				c-5.863,1.453-13.972,2.844-24.325,4.175c-15.067,0.833-26.75-0.2-35.05-3.1c-8.267-2.934-15.3-7.1-21.1-12.5
				c-1.233-1.467-3.483-1.467-6.75,0c-2.733,0.333-4.017,2.966-3.85,7.9c0.966,4.633,0.966,9.283,0,13.95
				C24.012,126.315,21.637,131.54,18.825,135.725z M-4.55,131.1c3.986,1.797,7.969,3.081,11.95,3.85
				c-6.356-7.164-9.59-12.33-9.7-15.5c-1.1-3.3-1.25-8.767-0.45-16.4c0.067-3.566-2.133-5.367-6.6-5.4l-11,3.65
				c-8.433,5.5-19,9.75-31.7,12.75c-9.64,1.025-18.89,1.383-27.75,1.075c6.811,3.542,16.161,6.383,28.05,8.525
				c9.022-1.368,17.939-3.584,26.75-6.65c6.067-2.767,10.833-5.85,14.3-9.25c2-1.933,2.95-1.933,2.85,0
				c-2.933,4.767-3.783,8.7-2.55,11.8C-8.938,123.478-6.988,127.327-4.55,131.1z M-98.7,60c-1.152,3.972-0.952,7.897,0.6,11.775
				c9.43,3.041,19.247,5.482,29.45,7.325c6.867,0.767,11.5,1.033,13.9,0.8c7.367,2.467,10.167,4.45,8.4,5.95
				c-24.233,12.167-39.4,18.316-45.5,18.45c1.009,1.982,2.459,3.84,4.35,5.575c13.255-1.362,24.839-5.171,34.75-11.425
				c5.133-4.167,10.25-9.217,15.35-15.15c1.333-2.833,0.3-4.667-3.1-5.5C-62.227,73.586-81.626,67.653-98.7,60z M-28.9,17.375
				c6.51,7.531,12.694,15.006,18.55,22.425c4.5,6.367,10.783,10.517,18.85,12.45c6.767,1.8,13.05-0.583,18.85-7.15l19.3-24.9
				c-4.759-0.504-9.792-0.854-15.1-1.05c-3.667,0.667-7.133,2.633-10.4,5.9l-6,11.5c-1.933,1.8-3.767,2.5-5.5,2.1
				c-2.367,1.067-4.533,0.367-6.5-2.1c-1.938-5.58-4.204-11.255-6.8-17.025l-8-4.475C-17.559,15.62-23.309,16.395-28.9,17.375z
				 M-58,24.775c-4.819,1.651-9.486,3.493-14,5.525c6.25,4.951,12.784,9.817,19.6,14.6c4.566,2.3,5.25,3.517,2.05,3.65
				c-4.927-2.071-10.002-4.396-15.225-6.975L-82.15,39.9c-3.487,2.612-6.446,5.203-8.875,7.775
				C-75.435,53.807-59.926,58.215-44.5,60.9h11.8c5.467,0.267,5.467-3.1,0-10.1l-12.7-15.15L-58,24.775z M91.275,34.125
				C87.5,31.461,83.108,29.153,78.1,27.2C61.909,38.866,51.142,47.833,45.8,54.1c-1.667,2.767-2.433,5.283-2.3,7.55
				c2,4.367,8.767,4.9,20.3,1.6L88.75,56c8.398-1.89,17.981-5.39,28.75-10.5c-3.829-1.995-8.329-3.978-13.5-5.95
				c-12.667,2.4-27.783,8.233-45.35,17.5c2.2-2.1,4.9-4.35,8.1-6.75C73.023,45.548,81.198,40.156,91.275,34.125z M129.3,72.25
				c6.015-6.096,6.231-12.112,0.65-18.05c-9.416,5.252-20.016,10.369-31.8,15.35C85.65,75.117,72.7,78.833,59.3,80.7
				c-4.267-0.267-5.783,0.85-4.55,3.35c1.333,2.333,3.533,4.2,6.6,5.6c7.1,4.1,19.867,7.583,38.3,10.45l21.45,2.4
				c0.208-1.437,0.091-2.904-0.35-4.4c-18.667-1.133-31.783-4.133-39.35-9c0.033-2.8,2.9-3.684,8.6-2.65
				c-2.967-1.667-1.95-2.517,3.05-2.55c12.434-1.566,23.034-4.65,31.8-9.25C126.358,73.858,127.842,73.059,129.3,72.25z M25.35,79.8
				c0-1.7-1.483-3.15-4.45-4.35c-2.933-1.2-6.483-1.8-10.65-1.8s-7.733,0.6-10.7,1.8c-2.933,1.2-4.4,2.65-4.4,4.35
				c0,1.7,1.467,3.15,4.4,4.35c2.967,1.2,6.534,1.8,10.7,1.8s7.717-0.6,10.65-1.8C23.867,82.95,25.35,81.5,25.35,79.8z"/>
			
				<path fill-rule="evenodd" clip-rule="evenodd" fill="none" stroke="#5D8718" stroke-width="0.1" stroke-linecap="round" stroke-linejoin="round" stroke-miterlimit="3" stroke-opacity="0" d="
				M121.1,102.5c-0.375,2.473-1.734,4.848-4.075,7.125c-5.863,1.453-13.972,2.844-24.325,4.175c-15.067,0.833-26.75-0.2-35.05-3.1
				c-8.267-2.934-15.3-7.1-21.1-12.5c-1.233-1.467-3.483-1.467-6.75,0c-2.733,0.333-4.017,2.966-3.85,7.9
				c0.966,4.633,0.966,9.283,0,13.95c-1.938,6.265-4.313,11.49-7.125,15.675c-3.806,0.212-7.614-0.046-11.425-0.775
				c-6.356-7.164-9.59-12.33-9.7-15.5c-1.1-3.3-1.25-8.767-0.45-16.4c0.067-3.566-2.133-5.367-6.6-5.4l-11,3.65
				c-8.433,5.5-19,9.75-31.7,12.75c-9.64,1.025-18.89,1.383-27.75,1.075c-3.088-1.61-5.654-3.36-7.7-5.25
				c13.255-1.362,24.839-5.171,34.75-11.425c5.133-4.167,10.25-9.217,15.35-15.15c1.333-2.833,0.3-4.667-3.1-5.5
				C-62.227,73.586-81.626,67.653-98.7,60c1.162-4.051,3.72-8.159,7.675-12.325C-75.435,53.807-59.926,58.215-44.5,60.9h11.8
				c5.467,0.267,5.467-3.1,0-10.1l-12.7-15.15L-58,24.775c9.155-3.151,18.855-5.618,29.1-7.4c6.51,7.531,12.694,15.006,18.55,22.425
				c4.5,6.367,10.783,10.517,18.85,12.45c6.767,1.8,13.05-0.583,18.85-7.15l19.3-24.9 M78.1,27.2
				C61.909,38.866,51.142,47.833,45.8,54.1c-1.667,2.767-2.433,5.283-2.3,7.55c2,4.367,8.767,4.9,20.3,1.6L88.75,56
				c8.398-1.89,17.981-5.39,28.75-10.5c5.556,2.879,9.706,5.779,12.45,8.7c-9.416,5.252-20.016,10.369-31.8,15.35
				C85.65,75.117,72.7,78.833,59.3,80.7c-4.267-0.267-5.783,0.85-4.55,3.35c1.333,2.333,3.533,4.2,6.6,5.6
				c7.1,4.1,19.867,7.583,38.3,10.45l21.45,2.4 M117.025,109.625c-4.57,4.466-12.903,8.558-25,12.275 M33.1,132.75
				c-4.752,1.731-9.511,2.723-14.275,2.975c-0.71,1.08-1.452,2.088-2.225,3.025c-1.733,2.2-3.333,2.517-4.8,0.95
				c-1.603-1.673-3.07-3.256-4.4-4.75c-3.98-0.77-7.964-2.053-11.95-3.85 M117.025,109.625c4.868-1.199,8.193-2.441,9.975-3.725
				c3.733-1.833,2.533-2.883-3.6-3.15l-2.3-0.25c0.208-1.437,0.091-2.904-0.35-4.4c-18.667-1.133-31.783-4.133-39.35-9
				c0.033-2.8,2.9-3.684,8.6-2.65 M66.75,50.3c-3.2,2.4-5.9,4.65-8.1,6.75 M25.35,79.8c0-1.7-1.483-3.15-4.45-4.35
				c-2.933-1.2-6.483-1.8-10.65-1.8s-7.733,0.6-10.7,1.8c-2.933,1.2-4.4,2.65-4.4,4.35c0,1.7,1.467,3.15,4.4,4.35
				c2.967,1.2,6.534,1.8,10.7,1.8s7.717-0.6,10.65-1.8C23.867,82.95,25.35,81.5,25.35,79.8z M21.15,25.05
				c3.267-3.267,6.733-5.233,10.4-5.9c5.308,0.196,10.341,0.546,15.1,1.05 M78.1,27.2c1.893-1.363,3.859-2.763,5.9-4.2
				c19.467-13.733,34.367-29.983,44.7-48.75c10.566-18.5,17.466-34.967,20.7-49.4c-0.233-6.367-2.867-6.367-7.9,0
				c-14.067,19.967-28.633,35.167-43.7,45.6c-19.267,14.867-35.35,30.2-48.25,46l-2.9,3.75 M129.95,54.2
				c5.581,5.938,5.364,11.954-0.65,18.05 M129.95,54.2c12.453-6.946,22.836-14.129,31.15-21.55
				c11.633-12.3,18.283-21.733,19.95-28.3L148.3,28.5c-11.162,6.883-21.429,12.55-30.8,17 M78.1,27.2
				c5.008,1.953,9.399,4.261,13.175,6.925 M46.5-15c19.167-15.133,39.767-29.483,61.8-43.05c7.434-4.733,16.184-12.733,26.25-24
				c7.534-8.434,13.75-14.934,18.65-19.5c3.1-3.1,7.216-4.2,12.35-3.3c5.1,0.967,5.092,18.767-0.025,53.4 M-79.8,115.125
				c6.811,3.542,16.161,6.383,28.05,8.525 M-87.5,109.875c-3.425,0.356-6.958,0.548-10.6,0.575c-6.167,0.7-4.65,1.9,4.55,3.6
				c4.472,0.542,9.055,0.9,13.75,1.075 M-54.75,79.9c7.367,2.467,10.167,4.45,8.4,5.95c-24.233,12.167-39.4,18.316-45.5,18.45
				c1.009,1.982,2.459,3.84,4.35,5.575 M-91.025,47.675c-9.578-3.777-19.187-8.202-28.825-13.275c-15.4-8.2-32.8-19.9-52.2-35.1
				c-2.267,0.6,1.1,5.733,10.1,15.4c15.767,16.1,36.633,31.1,62.6,45c0.214,0.097,0.431,0.197,0.65,0.3
				c-1.152,3.972-0.952,7.897,0.6,11.775 M-72,30.3c4.514-2.032,9.181-3.874,14-5.525 M-28.9,17.375
				c5.591-0.98,11.341-1.755,17.25-2.325l8,4.475 M-28.9,17.375C-38.897,5.771-49.664-5.971-61.2-17.85
				C-76.867-35.883-99.6-59.5-129.4-88.7c-5.467-4.533-7.617-2.9-6.45,4.9c4.967,27.966,22.184,56.617,51.65,85.95L-58,24.775
				 M-150.1-60.75c-6.967-20.133-10.517-35.05-10.65-44.75c-0.167-9.7,3.55-14.933,11.15-15.7c7.633-0.733,25.4,11.034,53.3,35.3
				c27.9,24.267,51.716,46.583,71.45,66.95"/>
			
				<path fill-rule="evenodd" clip-rule="evenodd" fill="none" stroke="#5D8718" stroke-width="0.1" stroke-linejoin="round" stroke-miterlimit="3" stroke-opacity="0" d="
				M46.65,20.2c12.338,1.302,22.821,3.636,31.45,7"/>
			
				<path fill-rule="evenodd" clip-rule="evenodd" fill="none" stroke="#3A540E" stroke-width="2" stroke-linecap="round" stroke-linejoin="round" stroke-miterlimit="3" d="
				M92.025,121.9c-4.395,0.458-9.036,0.841-13.925,1.15c-11.833-0.267-20.467-1.466-25.9-3.6c-5.867-2-11.167-5.617-15.9-10.85h-1.6
				c2.233,6.5,2.3,13.483,0.2,20.95c-0.581,1.095-1.181,2.162-1.8,3.2 M92.025,121.9c21.695-2.219,37.42-6.168,47.175-11.85
				c11.133-4.433,16.183-7.767,15.15-10c0.133-3.6-5.934-5.917-18.2-6.95c-16.033-0.9-28.167-2.083-36.4-3.55
				c-3.833-0.367-7.083-1.4-9.75-3.1c-2.967-1.667-1.95-2.517,3.05-2.55c12.434-1.566,23.034-4.65,31.8-9.25
				c1.508-0.792,2.992-1.591,4.45-2.4c18.747-10.399,33.347-22.232,43.8-35.5c11.267-14.3,24.75-36.833,40.45-67.6
				c4.3-8.833,4.3-13.617,0-14.35c-2.566-0.933-6.167,1.55-10.8,7.45c-18.033,24.4-37.033,41.933-57,52.6
				c-14.533,8.066-29.083,14.4-43.65,19C90.867,37.017,79.083,42.5,66.75,50.3c6.273-4.752,14.448-10.144,24.525-16.175
				c5.822-3.476,12.28-7.167,19.375-11.075c18.7-10.433,35.533-30.6,50.5-60.5c1.578-4.422,3.036-9.088,4.375-14
				c5.453-19.864,8.994-43.697,10.625-71.5c-0.167-12.133-2.833-18.633-8-19.5c-4.267-0.533-9.1,2.967-14.5,10.5l-33,49.5
				c-13.6,17.034-28.6,30.367-45,40C64.614-34.089,54.897-24.939,46.5-15C38.996-6.114,32.546,3.403,27.15,13.55l-6,11.5l-6,11.5
				c-1.933,1.8-3.767,2.5-5.5,2.1c-2.367,1.067-4.533,0.367-6.5-2.1c-1.938-5.58-4.204-11.255-6.8-17.025
				C-9.208,7.135-16.275-5.69-24.85-18.95c-15.066-22.7-49.233-61.367-102.5-116c-9.433-6.733-18.267-10.4-26.5-11
				c-5.833,0.2-11,3.7-15.5,10.5c-3.867,12.967,0.967,34.633,14.5,65c1.5,3.258,3.083,6.492,4.75,9.7
				C-132.939-27.73-106.905,2.62-72,30.3c6.25,4.951,12.784,9.817,19.6,14.6c4.566,2.3,5.25,3.517,2.05,3.65
				c-4.927-2.071-10.002-4.396-15.225-6.975c-12.116-5.978-25.041-13.319-38.775-22.025c-35.833-18.367-61.333-34.033-76.5-47
				c-6.6-6.667-11.933-9.5-16-8.5c-4.833,4.367-6.5,9.367-5,15c5.967,19.967,19.3,39.467,40,58.5
				c18.828,15.182,40.078,26.59,63.75,34.225c9.43,3.041,19.247,5.482,29.45,7.325c6.867,0.767,11.5,1.033,13.9,0.8
				c-7.133,5.067-19.083,10.083-35.85,15.05c-9.267,3.1-20.367,5.233-33.3,6.4c-8.5,1.4-11.967,3.8-10.4,7.2
				c1.8,3.967,8.167,7.717,19.1,11.25c21.699,5.703,42.849,6.986,63.45,3.85c9.022-1.368,17.939-3.584,26.75-6.65
				c6.067-2.767,10.833-5.85,14.3-9.25c2-1.933,2.95-1.933,2.85,0c-2.933,4.767-3.783,8.7-2.55,11.8
				c1.462,3.928,3.412,7.777,5.85,11.55c3.416,5.265,7.782,10.382,13.1,15.35c4.2,4.367,8.417,4.667,12.65,0.9
				c4.539-4.032,8.506-8.898,11.9-14.6"/>
			
				<radialGradient id="SVGID_5_" cx="10.3501" cy="78.1499" r="54.25" gradientTransform="matrix(-4.371139e-008 -1 2.1548 -9.419099e-008 -158.0498 88.5)" gradientUnits="userSpaceOnUse">
				<stop  offset="0" style="stop-color:#C4F584"/>
				<stop  offset="1" style="stop-color:#C0D966"/>
			</radialGradient>
			<path fill-rule="evenodd" clip-rule="evenodd" fill="url(#SVGID_5_)" d="M-98.7,60c17.074,7.653,36.474,13.586,58.2,17.8
				c3.4,0.833,4.433,2.667,3.1,5.5c-5.1,5.934-10.217,10.983-15.35,15.15c-9.911,6.254-21.495,10.063-34.75,11.425
				c2.046,1.89,4.612,3.64,7.7,5.25c8.86,0.308,18.11-0.05,27.75-1.075c12.7-3,23.267-7.25,31.7-12.75l11-3.65
				c4.467,0.033,6.667,1.833,6.6,5.4c-0.8,7.633-0.65,13.1,0.45,16.4c0.11,3.17,3.343,8.336,9.7,15.5
				c3.811,0.729,7.619,0.987,11.425,0.775c2.812-4.185,5.187-9.41,7.125-15.675c0.966-4.667,0.966-9.316,0-13.95
				c-0.167-4.934,1.117-7.567,3.85-7.9c3.267-1.467,5.517-1.467,6.75,0c5.8,5.4,12.833,9.566,21.1,12.5
				c8.3,2.9,19.983,3.933,35.05,3.1c10.353-1.331,18.461-2.722,24.325-4.175c2.341-2.277,3.7-4.652,4.075-7.125l-21.45-2.4
				c-18.433-2.867-31.2-6.35-38.3-10.45c-3.067-1.4-5.267-3.267-6.6-5.6c-1.233-2.5,0.283-3.617,4.55-3.35
				c13.4-1.867,26.35-5.583,38.85-11.15c11.784-4.98,22.384-10.097,31.8-15.35c-2.745-2.921-6.895-5.821-12.45-8.7
				c-10.769,5.11-20.352,8.61-28.75,10.5L63.8,63.25c-11.533,3.3-18.3,2.767-20.3-1.6c-0.133-2.267,0.633-4.783,2.3-7.55
				c5.342-6.268,16.109-15.234,32.3-26.9c-8.629-3.364-19.112-5.698-31.45-7l-19.3,24.9c-5.8,6.566-12.083,8.95-18.85,7.15
				C0.433,50.317-5.85,46.167-10.35,39.8c-5.856-7.418-12.04-14.894-18.55-22.425c-10.245,1.782-19.945,4.249-29.1,7.4l12.6,10.875
				l12.7,15.15c5.467,7,5.467,10.367,0,10.1h-11.8c-15.426-2.685-30.935-7.093-46.525-13.225C-94.98,51.841-97.538,55.949-98.7,60z
				 M20.9,75.45c2.967,1.2,4.45,2.65,4.45,4.35c0,1.7-1.483,3.15-4.45,4.35c-2.933,1.2-6.483,1.8-10.65,1.8s-7.733-0.6-10.7-1.8
				c-2.933-1.2-4.4-2.65-4.4-4.35c0-1.7,1.467-3.15,4.4-4.35c2.967-1.2,6.534-1.8,10.7-1.8S17.967,74.25,20.9,75.45z"/>
			<path fill-rule="evenodd" clip-rule="evenodd" fill="#B5CD61" d="M121.1,102.5c-0.375,2.473-1.734,4.848-4.075,7.125
				c4.868-1.199,8.193-2.441,9.975-3.725c3.733-1.833,2.533-2.883-3.6-3.15L121.1,102.5z M129.95,54.2
				c12.453-6.946,22.836-14.129,31.15-21.55c11.633-12.3,18.283-21.733,19.95-28.3L148.3,28.5c-11.162,6.883-21.429,12.55-30.8,17
				C123.056,48.379,127.206,51.279,129.95,54.2z M78.1,27.2c1.893-1.363,3.859-2.763,5.9-4.2
				c19.467-13.733,34.367-29.983,44.7-48.75c10.566-18.5,17.466-34.967,20.7-49.4c-0.233-6.367-2.867-6.367-7.9,0
				c-14.067,19.967-28.633,35.167-43.7,45.6c-19.267,14.867-35.35,30.2-48.25,46l-2.9,3.75C58.988,21.502,69.471,23.836,78.1,27.2z
				 M-98.7,60c1.162-4.051,3.72-8.159,7.675-12.325c-9.578-3.777-19.187-8.202-28.825-13.275c-15.4-8.2-32.8-19.9-52.2-35.1
				c-2.267,0.6,1.1,5.733,10.1,15.4c15.767,16.1,36.633,31.1,62.6,45C-99.136,59.797-98.919,59.897-98.7,60z M-58,24.775
				c9.155-3.151,18.855-5.618,29.1-7.4C-38.897,5.771-49.664-5.971-61.2-17.85C-76.867-35.883-99.6-59.5-129.4-88.7
				c-5.467-4.533-7.617-2.9-6.45,4.9c4.967,27.966,22.184,56.617,51.65,85.95L-58,24.775z M-79.8,115.125
				c-3.088-1.61-5.654-3.36-7.7-5.25c-3.425,0.356-6.958,0.548-10.6,0.575c-6.167,0.7-4.65,1.9,4.55,3.6
				C-89.078,114.592-84.495,114.95-79.8,115.125z M18.825,135.725c-3.806,0.212-7.614-0.046-11.425-0.775
				c1.33,1.494,2.797,3.077,4.4,4.75c1.467,1.566,3.067,1.25,4.8-0.95C17.374,137.813,18.115,136.805,18.825,135.725z"/>
		</g>
		<g id="Calque_2_3_">
		</g>
	</symbol>
</defs>
<radialGradient id="SVGID_6_" cx="215.3325" cy="259.8672" r="34.075" fx="225.3546" fy="259.8672" gradientTransform="matrix(-4.371139e-008 1 -2.8507 -1.246079e-007 956.1351 44.5347)" gradientUnits="userSpaceOnUse">
	<stop  offset="0" style="stop-color:#4D4D4D"/>
	<stop  offset="1" style="stop-color:#000000;stop-opacity:0"/>
</radialGradient>
<path fill-rule="evenodd" clip-rule="evenodd" fill="url(#SVGID_6_)" d="M289.183,286.967c-20.4,9.703-45.017,14.72-73.85,15.05
	c-28.833,0.33-53.45-4.52-73.85-14.55c-20.4-10.034-30.6-19.234-30.6-27.6c0-8.367,10.2-15.5,30.6-21.4
	c20.4-5.899,45.017-8.85,73.85-8.85c28.833,0,53.45,2.95,73.85,8.85c20.4,5.9,30.6,13.033,30.6,21.4
	S309.583,277.268,289.183,286.967z"/>
<use xlink:href="#body"  width="195.446" height="209.802" x="-97.281" y="-104.655" transform="matrix(1 0 0 -1 212.3828 179.667)" overflow="visible"/>
<use xlink:href="#leafs"  width="421.158" height="297.917" x="-203.383" y="-146.95" transform="matrix(1 0 0 -1 203.3828 150.9668)" overflow="visible"/>
</svg>
